<svg xmlns="http://www.w3.org/2000/svg" xmlns:xlink="http://www.w3.org/1999/xlink" width="1045" height="719.953" viewBox="0 0 1045 719.953"><defs><style>.a,.r{fill:#4381e8;}.a{opacity:0.05;}.b{opacity:0.26;}.c{opacity:0.1;}.d{fill:url(#a);}.e{opacity:0.6;mix-blend-mode:screen;fill:url(#b);}.e,.j,.k{isolation:isolate;}.f{fill:#99bdf9;}.g{fill:#dfe4fc;}.h,.z{fill:#d4e4ff;}.i{fill:#0c419a;}.j,.p,.t{fill:none;}.j,.k{mix-blend-mode:multiply;}.k,.m{fill:#afb6e5;}.l{fill:#fff;}.n{fill:#eef1ff;}.o{fill:#e8ebff;}.p{stroke:#346dc9;}.q{fill:#5793ce;}.aa,.s{fill:#d4ecff;}.t{stroke:#707070;}.u{fill:#fafdff;}.v{fill:#173d7a;}.w{fill:#4a99df;}.x{fill:#1267f1;}.y{fill:#396caa;}.aa,.z{opacity:0.4;}.ab{fill:url(#d);}.ac{fill:url(#e);}.ad{fill:url(#f);}.ae{fill:url(#g);}.af{fill:url(#h);}.ag{fill:url(#i);}.ah{fill:url(#j);}.ai{fill:url(#k);}.aj{fill:url(#l);}.ak{fill:url(#m);}.al{fill:url(#n);}.am{fill:url(#o);}.an{fill:url(#p);}.ao{fill:url(#q);}.ap{fill:url(#r);}.aq{fill:url(#s);}.ar{fill:url(#t);}.as{fill:url(#u);}.at{fill:url(#v);}.au{fill:url(#w);}.av{fill:url(#y);}.aw{fill:url(#z);}.ax{fill:#092e63;opacity:0.18;}</style><linearGradient id="a" x1="0.09" y1="0.004" x2="0.942" y2="0.993" gradientUnits="objectBoundingBox"><stop offset="0" stop-color="#cdd2f3"/><stop offset="0.192" stop-color="#e5e9ff"/><stop offset="0.236" stop-color="#eff1ff"/><stop offset="0.283" stop-color="#fff"/><stop offset="0.32" stop-color="#ebedf8"/><stop offset="0.396" stop-color="#b8bee8"/><stop offset="0.409" stop-color="#afb6e5"/><stop offset="0.909" stop-color="#afb6e5"/><stop offset="0.95" stop-color="#b9c0ea"/><stop offset="1" stop-color="#cdd2f3"/></linearGradient><radialGradient id="b" cx="0.971" cy="0.218" r="0.377" gradientTransform="translate(26.151) scale(2.423 1)" gradientUnits="objectBoundingBox"><stop offset="0" stop-color="#af8afc"/><stop offset="1" stop-color="#10054d"/></radialGradient><linearGradient id="d" x1="0.103" y1="0.006" x2="0.928" y2="0.991" gradientUnits="objectBoundingBox"><stop offset="0" stop-color="#b0b7e6"/><stop offset="0.192" stop-color="#b2b8e6"/><stop offset="0.283" stop-color="#b3b9e6"/><stop offset="0.409" stop-color="#afb6e5"/><stop offset="0.909" stop-color="#afb6e5"/><stop offset="1" stop-color="#b0b7e6"/></linearGradient><linearGradient id="e" x1="0.102" y1="0.006" x2="0.929" y2="0.991" gradientUnits="objectBoundingBox"><stop offset="0" stop-color="#b2b9e6"/><stop offset="0.192" stop-color="#b4bbe7"/><stop offset="0.283" stop-color="#b7bde7"/><stop offset="0.409" stop-color="#afb6e5"/><stop offset="0.909" stop-color="#afb6e5"/><stop offset="1" stop-color="#b2b9e6"/></linearGradient><linearGradient id="f" x1="0.102" y1="0.006" x2="0.929" y2="0.991" gradientUnits="objectBoundingBox"><stop offset="0" stop-color="#b3bae7"/><stop offset="0.192" stop-color="#b7bde9"/><stop offset="0.283" stop-color="#bac0e9"/><stop offset="0.409" stop-color="#afb6e5"/><stop offset="0.909" stop-color="#afb6e5"/><stop offset="1" stop-color="#b3bae7"/></linearGradient><linearGradient id="g" x1="0.101" y1="0.006" x2="0.93" y2="0.991" gradientUnits="objectBoundingBox"><stop offset="0" stop-color="#b5bbe8"/><stop offset="0.192" stop-color="#b9c0ea"/><stop offset="0.283" stop-color="#bec4ea"/><stop offset="0.409" stop-color="#afb6e5"/><stop offset="0.909" stop-color="#afb6e5"/><stop offset="1" stop-color="#b5bbe8"/></linearGradient><linearGradient id="h" x1="0.1" y1="0.006" x2="0.931" y2="0.991" gradientUnits="objectBoundingBox"><stop offset="0" stop-color="#b6bde8"/><stop offset="0.192" stop-color="#bcc2eb"/><stop offset="0.283" stop-color="#c2c7eb"/><stop offset="0.409" stop-color="#afb6e5"/><stop offset="0.909" stop-color="#afb6e5"/><stop offset="1" stop-color="#b6bde8"/></linearGradient><linearGradient id="i" x1="0.1" y1="0.006" x2="0.931" y2="0.991" gradientUnits="objectBoundingBox"><stop offset="0" stop-color="#b8bee9"/><stop offset="0.192" stop-color="#bec5ec"/><stop offset="0.283" stop-color="#c6cbec"/><stop offset="0.393" stop-color="#b2b9e6"/><stop offset="0.409" stop-color="#afb6e5"/><stop offset="0.909" stop-color="#afb6e5"/><stop offset="1" stop-color="#b8bee9"/></linearGradient><linearGradient id="j" x1="0.099" y1="0.005" x2="0.932" y2="0.991" gradientUnits="objectBoundingBox"><stop offset="0" stop-color="#b9bfea"/><stop offset="0.192" stop-color="#c1c7ee"/><stop offset="0.283" stop-color="#caceee"/><stop offset="0.378" stop-color="#b6bce7"/><stop offset="0.409" stop-color="#afb6e5"/><stop offset="0.909" stop-color="#afb6e5"/><stop offset="1" stop-color="#b9bfea"/></linearGradient><linearGradient id="k" x1="0.098" y1="0.005" x2="0.933" y2="0.991" gradientUnits="objectBoundingBox"><stop offset="0" stop-color="#bac1ea"/><stop offset="0.192" stop-color="#c4c9ef"/><stop offset="0.283" stop-color="#cdd2ef"/><stop offset="0.37" stop-color="#b9bfe8"/><stop offset="0.409" stop-color="#afb6e5"/><stop offset="0.909" stop-color="#afb6e5"/><stop offset="0.999" stop-color="#b9c0e9"/><stop offset="1" stop-color="#bac1ea"/></linearGradient><linearGradient id="l" x1="0.098" y1="0.005" x2="0.934" y2="0.991" gradientUnits="objectBoundingBox"><stop offset="0" stop-color="#bcc2eb"/><stop offset="0.192" stop-color="#c6ccf0"/><stop offset="0.277" stop-color="#d0d4f0"/><stop offset="0.283" stop-color="#d1d5f0"/><stop offset="0.361" stop-color="#bdc3e9"/><stop offset="0.409" stop-color="#afb6e5"/><stop offset="0.909" stop-color="#afb6e5"/><stop offset="0.988" stop-color="#b9c0ea"/><stop offset="1" stop-color="#bcc2eb"/></linearGradient><linearGradient id="m" x1="0.097" y1="0.005" x2="0.934" y2="0.992" gradientUnits="objectBoundingBox"><stop offset="0" stop-color="#bdc3ec"/><stop offset="0.192" stop-color="#c9cef1"/><stop offset="0.272" stop-color="#d3d7f1"/><stop offset="0.283" stop-color="#d5d9f1"/><stop offset="0.354" stop-color="#c1c6ea"/><stop offset="0.409" stop-color="#afb6e5"/><stop offset="0.909" stop-color="#afb6e5"/><stop offset="0.984" stop-color="#b9c0ea"/><stop offset="1" stop-color="#bdc3ec"/></linearGradient><linearGradient id="n" x1="0.096" y1="0.005" x2="0.935" y2="0.992" gradientUnits="objectBoundingBox"><stop offset="0" stop-color="#bfc5ec"/><stop offset="0.192" stop-color="#cbd1f3"/><stop offset="0.263" stop-color="#d5d8f3"/><stop offset="0.283" stop-color="#d9dcf3"/><stop offset="0.348" stop-color="#c5caec"/><stop offset="0.409" stop-color="#afb6e5"/><stop offset="0.909" stop-color="#afb6e5"/><stop offset="0.976" stop-color="#b9c0e9"/><stop offset="1" stop-color="#bfc5ec"/></linearGradient><linearGradient id="o" x1="0.096" y1="0.005" x2="0.936" y2="0.992" gradientUnits="objectBoundingBox"><stop offset="0" stop-color="#c0c6ed"/><stop offset="0.192" stop-color="#ced3f4"/><stop offset="0.259" stop-color="#d8dbf4"/><stop offset="0.283" stop-color="#dde0f4"/><stop offset="0.343" stop-color="#c9ceed"/><stop offset="0.409" stop-color="#afb6e5"/><stop offset="0.909" stop-color="#afb6e5"/><stop offset="0.973" stop-color="#b9c0ea"/><stop offset="1" stop-color="#c0c6ed"/></linearGradient><linearGradient id="p" x1="0.095" y1="0.005" x2="0.936" y2="0.992" gradientUnits="objectBoundingBox"><stop offset="0" stop-color="#c2c7ee"/><stop offset="0.192" stop-color="#d0d6f5"/><stop offset="0.253" stop-color="#daddf5"/><stop offset="0.283" stop-color="#e1e3f5"/><stop offset="0.339" stop-color="#cdd1ee"/><stop offset="0.409" stop-color="#afb6e5"/><stop offset="0.909" stop-color="#afb6e5"/><stop offset="0.968" stop-color="#b9bfea"/><stop offset="1" stop-color="#c2c7ee"/></linearGradient><linearGradient id="q" x1="0.094" y1="0.005" x2="0.937" y2="0.992" gradientUnits="objectBoundingBox"><stop offset="0" stop-color="#c3c9ee"/><stop offset="0.192" stop-color="#d3d8f6"/><stop offset="0.253" stop-color="#dde0f6"/><stop offset="0.283" stop-color="#e4e7f6"/><stop offset="0.336" stop-color="#d0d4ef"/><stop offset="0.409" stop-color="#afb6e5"/><stop offset="0.909" stop-color="#afb6e5"/><stop offset="0.966" stop-color="#b9c0e9"/><stop offset="1" stop-color="#c3c9ee"/></linearGradient><linearGradient id="r" x1="0.094" y1="0.005" x2="0.938" y2="0.992" gradientUnits="objectBoundingBox"><stop offset="0" stop-color="#c4caef"/><stop offset="0.192" stop-color="#d6daf8"/><stop offset="0.25" stop-color="#e0e2f8"/><stop offset="0.283" stop-color="#e8eaf8"/><stop offset="0.333" stop-color="#d4d8f1"/><stop offset="0.409" stop-color="#afb6e5"/><stop offset="0.909" stop-color="#afb6e5"/><stop offset="0.963" stop-color="#b9c0ea"/><stop offset="1" stop-color="#c4caef"/></linearGradient><linearGradient id="s" x1="0.093" y1="0.005" x2="0.939" y2="0.992" gradientUnits="objectBoundingBox"><stop offset="0" stop-color="#c6cbf0"/><stop offset="0.192" stop-color="#d8ddf9"/><stop offset="0.246" stop-color="#e2e5f9"/><stop offset="0.283" stop-color="#eceef9"/><stop offset="0.33" stop-color="#d8dbf2"/><stop offset="0.409" stop-color="#afb6e5"/><stop offset="0.909" stop-color="#afb6e5"/><stop offset="0.96" stop-color="#b9bfea"/><stop offset="1" stop-color="#c6cbf0"/></linearGradient><linearGradient id="t" x1="0.092" y1="0.004" x2="0.939" y2="0.992" gradientUnits="objectBoundingBox"><stop offset="0" stop-color="#c7cdf0"/><stop offset="0.192" stop-color="#dbdffa"/><stop offset="0.244" stop-color="#e5e7fa"/><stop offset="0.283" stop-color="#f0f1fa"/><stop offset="0.327" stop-color="#dcdff3"/><stop offset="0.409" stop-color="#afb6e5"/><stop offset="0.909" stop-color="#afb6e5"/><stop offset="0.958" stop-color="#b9c0e9"/><stop offset="1" stop-color="#c7cdf0"/></linearGradient><linearGradient id="u" x1="0.092" y1="0.004" x2="0.94" y2="0.992" gradientUnits="objectBoundingBox"><stop offset="0" stop-color="#c9cef1"/><stop offset="0.192" stop-color="#dde2fb"/><stop offset="0.24" stop-color="#e7eafb"/><stop offset="0.283" stop-color="#f4f5fb"/><stop offset="0.325" stop-color="#e0e3f4"/><stop offset="0.409" stop-color="#afb6e5"/><stop offset="0.909" stop-color="#afb6e5"/><stop offset="0.955" stop-color="#b9c0ea"/><stop offset="1" stop-color="#c9cef1"/></linearGradient><linearGradient id="v" x1="0.091" y1="0.004" x2="0.941" y2="0.993" gradientUnits="objectBoundingBox"><stop offset="0" stop-color="#cacff2"/><stop offset="0.192" stop-color="#e0e4fd"/><stop offset="0.24" stop-color="#eaecfd"/><stop offset="0.283" stop-color="#f7f8fd"/><stop offset="0.324" stop-color="#e3e5f6"/><stop offset="0.407" stop-color="#b0b7e5"/><stop offset="0.409" stop-color="#afb6e5"/><stop offset="0.909" stop-color="#afb6e5"/><stop offset="0.954" stop-color="#b9c0ea"/><stop offset="1" stop-color="#cacff2"/></linearGradient><linearGradient id="w" x1="0.09" y1="0.004" x2="0.941" y2="0.993" gradientUnits="objectBoundingBox"><stop offset="0" stop-color="#ccd1f2"/><stop offset="0.192" stop-color="#e2e7fe"/><stop offset="0.237" stop-color="#eceffe"/><stop offset="0.283" stop-color="#fbfcfe"/><stop offset="0.322" stop-color="#e7e9f7"/><stop offset="0.401" stop-color="#b4bbe6"/><stop offset="0.409" stop-color="#afb6e5"/><stop offset="0.909" stop-color="#afb6e5"/><stop offset="0.951" stop-color="#b9c0e9"/><stop offset="1" stop-color="#ccd1f2"/></linearGradient><linearGradient id="y" x1="-1.318" y1="0.768" x2="1.886" y2="0.295" gradientUnits="objectBoundingBox"><stop offset="0" stop-color="#afb6e5"/><stop offset="0.145" stop-color="#b5bce8"/><stop offset="0.349" stop-color="#c7cdf0"/><stop offset="0.581" stop-color="#e5e9ff"/><stop offset="0.855" stop-color="#f4f6ff"/><stop offset="1" stop-color="#fff"/></linearGradient><linearGradient id="z" x1="2.581" y1="0.815" x2="-3.49" y2="-0.104" xlink:href="#y"/></defs><g transform="translate(-934 -3146.047)"><ellipse class="a" cx="522.5" cy="334.5" rx="522.5" ry="334.5" transform="translate(934 3197)"/><g transform="translate(14077.496 -18171.324)"><ellipse class="b" cx="32.5" cy="17" rx="32.5" ry="17" transform="translate(-12499.496 21550.324)"/><ellipse class="b" cx="32.5" cy="17" rx="32.5" ry="17" transform="translate(-12644.496 21537.324)"/><ellipse class="c" cx="61.5" cy="33" rx="61.5" ry="33" transform="translate(-12472.496 21683.324)"/><g transform="translate(-12659.233 21408.26)"><path class="d" d="M509.751,268.753,457.03,238.1c-4.83-2.788-8.745-10.27-8.745-16.711V107.358c0-3.276-2.692-4-1.062-5.176.063-.045,3.823-1.754,3.894-1.78a6.315,6.315,0,0,1,5.913.343L509.751,131.4c4.83,2.79,8.745,10.27,8.745,16.711V262.141c0,3.423-1.1,5.862-2.865,6.978-.1.067-4.635,2.221-4.751,2.26C509.317,271.9,511.862,269.973,509.751,268.753Z" transform="translate(-438.729 -99.828)"/><path class="e" d="M506.968,269.84l-52.719-30.652c-4.83-2.788-8.746-10.27-8.746-16.711V108.444c0-6.441,3.916-9.4,8.746-6.613l52.719,30.652c4.83,2.79,8.746,10.27,8.746,16.711V263.229C515.714,269.668,511.8,272.628,506.968,269.84Z" transform="translate(-439.273 -99.393)"/><path class="f" d="M506.445,270.123l-52.721-30.652c-4.83-2.788-8.745-10.27-8.745-16.711V108.727c0-6.441,3.915-9.4,8.745-6.613l52.721,30.652c4.83,2.788,8.745,10.27,8.745,16.711V263.51C515.19,269.951,511.275,272.911,506.445,270.123Z" transform="translate(-439.511 -99.264)"/><path class="g" d="M445.8,223.031V108.856c0-5.646,3.433-8.241,7.666-5.8l52.492,30.519c4.235,2.445,7.668,9,7.668,14.648V262.4c0,5.645-3.433,8.24-7.668,5.795l-52.492-30.519C449.232,235.234,445.8,228.676,445.8,223.031Z" transform="translate(-439.138 -98.775)"/><path class="h" d="M446.97,211.358V109.388c0-4.725,2.873-6.9,6.418-4.852l51.583,30c3.545,2.046,6.418,7.535,6.418,12.26V248.766c0,4.725-2.873,6.9-6.418,4.85l-51.583-30C449.843,221.574,446.97,216.085,446.97,211.358Z" transform="translate(-438.605 -98.035)"/><path class="i" d="M453.6,105.419c-3.34-1.93-6.048-.386-6.048,3.447V212.115a13.328,13.328,0,0,0,6.048,10.433l50.619,29.438c3.34,1.928,6.048.384,6.048-3.449V145.289a13.326,13.326,0,0,0-6.048-10.431Z" transform="translate(-438.339 -97.661)"/><path class="j" d="M504.222,134.857,453.6,105.419c-3.34-1.93-6.048-.386-6.048,3.447V212.115a13.328,13.328,0,0,0,6.048,10.433l50.619,29.438c3.34,1.928,6.048.384,6.048-3.449V145.289A13.328,13.328,0,0,0,504.222,134.857Zm5.521,113.68a4.494,4.494,0,0,1-.809,2.829,2.469,2.469,0,0,1-2,.926h0a5.049,5.049,0,0,1-2.452-.761l-50.618-29.438a12.765,12.765,0,0,1-5.785-9.977V108.867c0-2.314,1.076-3.753,2.807-3.753a5.048,5.048,0,0,1,2.452.761l50.618,29.438a12.764,12.764,0,0,1,5.785,9.976Z" transform="translate(-438.339 -97.661)"/><path class="k" d="M473.473,204.57c0,2.243-1.585,3.146-3.541,2.018a7.805,7.805,0,0,1-3.541-6.106c0-2.244,1.586-3.148,3.541-2.02A7.8,7.8,0,0,1,473.473,204.57Z" transform="translate(-429.763 -55.146)"/><path class="l" d="M468.586,198.218a3.237,3.237,0,0,1,1.589.486,7.8,7.8,0,0,1,3.541,6.108c0,1.588-.795,2.5-1.952,2.5a3.241,3.241,0,0,1-1.589-.486,7.805,7.805,0,0,1-3.541-6.106c0-1.589.795-2.506,1.951-2.506Zm0-.774c-1.63,0-2.726,1.318-2.726,3.28a8.54,8.54,0,0,0,3.928,6.777,3.969,3.969,0,0,0,1.976.589c1.631,0,2.726-1.317,2.726-3.279a8.541,8.541,0,0,0-3.928-6.779,3.969,3.969,0,0,0-1.976-.589Z" transform="translate(-430.006 -55.388)"/></g><g transform="translate(-12554.134 21317.371)"><g transform="translate(62.949 182.847)"><g transform="translate(0 36.436)"><path class="m" d="M171.88,355.286v-5.895h-1.753a21.112,21.112,0,0,0-7.934-7.42c-12.914-7.457-33.853-7.457-46.767,0a21.1,21.1,0,0,0-7.932,7.42h-1.751v5.846h0c-.022,4.9,3.2,9.809,9.683,13.551,12.914,7.455,33.853,7.455,46.767,0C168.652,365.06,171.88,360.173,171.88,355.286Z" transform="translate(-105.742 -330.299)"/><path class="m" d="M155.721,341.966c-11.569-6.68-29.562-7.357-42.472-2.067v30.95c12.91,5.289,30.9,4.615,42.474-2.065,6.457-3.729,9.685-8.615,9.685-13.5v-5.9h-1.753A21.1,21.1,0,0,0,155.721,341.966Z" transform="translate(-99.269 -330.293)"/><path class="n" d="M33.069,0C51.333,0,66.139,8.548,66.139,19.093S51.333,38.185,33.069,38.185,0,29.637,0,19.093,14.806,0,33.069,0Z"/><path class="l" d="M162.181,356.585c-12.914,7.455-33.853,7.455-46.767,0-6.191-3.574-9.379-8.211-9.636-12.893-.279,5.086,2.911,10.225,9.636,14.108,12.914,7.457,33.853,7.457,46.767,0,6.725-3.883,9.914-9.02,9.634-14.108C171.558,348.374,168.37,353.012,162.181,356.585Z" transform="translate(-105.727 -323.992)"/></g><g transform="translate(28.536)"><path class="m" d="M146.776,368.548a5.231,5.231,0,0,1-4.708.212l-20.153-11.541a1.4,1.4,0,0,1-.818-1.162l0,0-.02-41.424L147.881,325.9l.035,41a1.168,1.168,0,0,1,0,.242h0A2.052,2.052,0,0,1,146.776,368.548Z" transform="translate(-121.056 -312.618)"/><path class="m" d="M121.079,323.764l.008,16.092,26.82,15.485-.018-20.465-23.029-13.3Z" transform="translate(-121.052 -306.625)"/><path class="m" d="M137.1,321.365l.035,41a1.168,1.168,0,0,1,0,.242h0a2.052,2.052,0,0,1-1.14,1.4,5.381,5.381,0,0,1-2.306.661l-.112-44.791Z" transform="translate(-110.274 -308.086)"/><path class="m" d="M147.076,325.553l-20.155-11.539a5.231,5.231,0,0,0-4.708.212h0c-1.391.808-1.538,2.026-.328,2.719l20.153,11.541a5.231,5.231,0,0,0,4.708-.212h0C148.137,327.464,148.284,326.246,147.076,325.553Z" transform="translate(-121.065 -313.55)"/><path class="m" d="M142.05,327.611,121.9,316.07a1.386,1.386,0,0,1-.816-1.2,1.516,1.516,0,0,0,.79.933l20.153,11.541a5.231,5.231,0,0,0,4.708-.212h0a1.95,1.95,0,0,0,1.144-1.523c.142.6-.24,1.276-1.117,1.788h0A5.235,5.235,0,0,1,142.05,327.611Z" transform="translate(-121.051 -312.41)"/></g></g><g transform="translate(0 0)"><path class="d" d="M280.476,329.554,84.2,216.238a4.646,4.646,0,0,0-4.721-.387l0-.006L73.35,219.4l3.74.527a11.3,11.3,0,0,0-.138,1.8V357.245c0,5.339,3.246,11.545,7.252,13.858l195.97,113.143-1,4.053,6.044-3.5-.007,0c1.54-.883,2.52-2.937,2.52-5.863V343.414C287.728,338.073,284.48,331.869,280.476,329.554Z" transform="translate(-70.73 -215.372)"/><path class="m" d="M247.527,428.907l-.007,0c1.54-.883,2.52-2.937,2.52-5.863V287.518a17.612,17.612,0,0,0-1.79-7.332l-131.2,75.746L242.485,428.35l-1,4.053Z" transform="translate(-33.041 -159.476)"/><path class="o" d="M275.465,486.356,79.2,373.04c-4.006-2.313-7.252-8.517-7.252-13.858V223.659c0-5.341,3.246-7.8,7.252-5.485l196.27,113.318c4.006,2.313,7.254,8.517,7.254,13.858V480.873C282.719,486.215,279.471,488.669,275.465,486.356Z" transform="translate(-71.943 -213.705)"/><path class="l" d="M274.715,331.324,78.445,218.007a4.745,4.745,0,0,0-4.507-.5,5.322,5.322,0,0,1,3.537.812l196.27,113.316c4.006,2.311,7.254,8.517,7.254,13.858V481.015c0,3.067-1.075,5.176-2.745,5.982,2.216-.374,3.716-2.665,3.716-6.293V345.182C281.969,339.841,278.721,333.637,274.715,331.324Z" transform="translate(-70.222 -213.847)"/><path class="i" d="M274.195,479.525,76.7,365.5a6.151,6.151,0,0,1-2.566-4.9V222.267c0-1.89,1.149-2.758,2.566-1.941l197.5,114.026a6.145,6.145,0,0,1,2.566,4.9V477.585C276.761,479.475,275.612,480.343,274.195,479.525Z" transform="translate(-70.058 -211.365)"/></g></g><g transform="translate(-12784.861 21559.023)"><path class="p" d="M-13121.978,20987.922l-296.123,172.105v-77" transform="translate(13427.118 -20971.539)"/><path class="p" d="M-13263.8,20979.125l-47.43,25.914,81.143,46.258-192.859,109.754v-77.613" transform="translate(13422.942 -20979.125)"/><path class="p" d="M-13060.115,21096.641l-111.687,78.746-170.336-98.621-70.859,41.309v-77.191" transform="translate(13431.521 -20925.861)"/></g><g transform="translate(-12858.068 21559.383)"><g transform="translate(0 0)"><path class="q" d="M138.014,198.875l20.008-11.783-19.055-23.781-5.009,8.184Z" transform="translate(15.424 -31.092)"/><path class="r" d="M58.134,120.833l31.931-18.371s-1.2,18.334-1.2,18.371-18.345,5.682-18.345,5.682Z" transform="translate(-49.967 -83.568)"/><path class="r" d="M197.981,200.3a20.142,20.142,0,0,0-6.91-2.561c-3.218-16.918-14.992-34.887-29.031-42.992a28.433,28.433,0,0,0-11.878-4.021c-1.916-20.507-16.177-43.813-33.492-53.811-9.046-5.222-17.252-5.841-23.308-2.643l0-.015-.294.169c-.155.086-.307.173-.46.264l-18.829,11.12,6.256,4.941c-5.615,2.455-9.165,8.753-9.165,18.065,0,17.17,12.054,38.047,26.925,46.633L197.981,246.99c11.165,6.448,20.216,1.222,20.216-11.672S209.147,206.747,197.981,200.3Z" transform="translate(-38.982 -92.317)"/><path class="r" d="M71.371,121.256l43.215-25.249c-8.39-4.375-15.97-4.736-21.654-1.736l0-.015-.294.169c-.155.086-.307.173-.46.264l-18.829,11.12,6.256,4.941C75.681,112.468,72.772,116.068,71.371,121.256Z" transform="translate(-38.552 -92.317)"/><path class="r" d="M129.459,167.4l31.532-18.5c-5.408-9.353-12.856-17.525-21.1-22.286q-1.634-.944-3.228-1.661L96.556,148.4Z" transform="translate(-16.832 -64.178)"/><path class="h" d="M77.2,107.5l14.052,8.113,25.733-15.156a51.277,51.277,0,0,0-5.781-3.919,36.062,36.062,0,0,0-8.994-3.777Z" transform="translate(-33.52 -91.937)"/><path class="h" d="M140.939,134.881,115.774,149.71l8.751,9.763,22.846-13.489A73.215,73.215,0,0,0,140.939,134.881Z" transform="translate(-0.258 -55.61)"/><path class="f" d="M192.979,206.556A20.094,20.094,0,0,0,186.071,204c-3.22-16.92-14.992-34.889-29.031-42.992a28.405,28.405,0,0,0-11.88-4.021c-1.916-20.509-16.175-43.815-33.49-53.812-18.622-10.75-33.719-2.036-33.719,19.466,0,.73.02,1.466.056,2.205-13.618-6.315-24.258.8-24.258,16.931,0,17.17,12.054,38.049,26.925,46.633l112.305,64.84c11.167,6.448,20.218,1.222,20.218-11.672S204.146,213,192.979,206.556Z" transform="translate(-53.749 -86.928)"/><g transform="translate(6.159 10.036)"><path class="l" d="M75.155,114.46c-.035-.739-.056-1.475-.056-2.205l0-.089c-7.522-2.926-13.989-1.652-18.045,3.041C61.462,111.579,67.873,111.084,75.155,114.46Z" transform="translate(-57.056 -86.583)"/><path class="l" d="M179.961,205.694a20.142,20.142,0,0,0-6.91-2.561c-3.218-16.918-14.992-34.887-29.029-42.992a28.4,28.4,0,0,0-11.88-4.019c-1.916-20.509-16.175-43.815-33.492-53.812-11.6-6.7-21.833-5.839-27.9.961,6.181-5.282,15.642-5.487,26.256.641,17.315,10,31.573,33.305,33.49,53.812a28.426,28.426,0,0,1,11.88,4.019c14.039,8.105,25.811,26.074,29.031,42.994a20.094,20.094,0,0,1,6.908,2.561c11.167,6.446,20.218,22.124,20.218,35.017,0,4.652-1.192,8.288-3.224,10.755,3.028-2.334,4.868-6.561,4.868-12.357C200.179,227.82,191.128,212.142,179.961,205.694Z" transform="translate(-45.245 -97.706)"/></g><g transform="translate(5.645 17.269)"><path class="h" d="M73.018,127.355l8.44,3.915-.428-9.3c-.03-.654-.048-1.3-.048-1.946,0-8.3,2.5-14.313,7.053-16.939s11.012-1.786,18.2,2.362c15.454,8.923,28.936,30.642,30.694,49.449l.443,4.738,4.744.365a22.815,22.815,0,0,1,9.491,3.28c12.275,7.088,23.34,23.556,26.307,39.159l.743,3.905,3.928.616a14.6,14.6,0,0,1,4.961,1.872c9.429,5.446,17.395,19.242,17.395,30.13,0,4.075-1.129,7.064-3.1,8.2s-5.122.62-8.651-1.417L80.881,180.91c-13.065-7.543-24.1-26.66-24.1-41.746,0-5.921,1.745-10.43,4.79-12.374a8.181,8.181,0,0,1,4.475-1.2A16.885,16.885,0,0,1,73.018,127.355Z" transform="translate(-56.78 -101.59)"/></g></g><path class="s" d="M81.972,163.954c0,.914-.643,1.285-1.434.827a3.165,3.165,0,0,1-1.432-2.483c0-.913.641-1.283,1.432-.827A3.167,3.167,0,0,1,81.972,163.954Z" transform="translate(-31.881 -32.846)"/><path class="s" d="M109.791,179.8c0,.913-.641,1.283-1.432.827a3.167,3.167,0,0,1-1.434-2.483c0-.914.643-1.285,1.434-.827A3.165,3.165,0,0,1,109.791,179.8Z" transform="translate(-7.889 -19.183)"/></g><path class="t" d="M-12969.943,21516.141" transform="translate(185.082 171.419)"/><path class="p" d="M-12924.451,21519.023l-87.021,46.641" transform="translate(149.267 173.905)"/><path class="t" d="M-12895,21519.023l-116.471,65.621" transform="translate(-87.259 322.545)"/><g transform="translate(-12993.719 21624.695)"><g transform="translate(0 0)"><path class="r" d="M325.925,331.995h0V168.156l65.132-17.048,12-6.926c2.753-1.589,7.563-1.389,10.742.445l11.193,6.463,34.74-.019L449.444,309.234a3.113,3.113,0,0,1-1.846,2.877l-65,49.045c-2.755,1.59-7.563,1.391-10.742-.445L328.54,335.7C326.705,334.643,325.82,333.272,325.925,331.995Z" transform="translate(-325.91 -121.276)"/><path class="h" d="M384.459,143.113a12.388,12.388,0,0,1,5.759,1.51l11.193,6.463,34.74-.019V315.347a3.111,3.111,0,0,1-1.844,2.877L359.02,361.153a9.736,9.736,0,0,1-4.986,1.065l-.777-165.306Z" transform="translate(-302.331 -121.273)"/><path class="f" d="M359.958,337.484a12.239,12.239,0,0,1-8.588-.1V170.951h8.588Z" transform="translate(-303.959 -97.265)"/><path class="h" d="M382.6,207.044l75.286-42.929c2.753-1.591,2.408-4.367-.771-6.2L413.8,132.9c-3.179-1.834-7.99-2.034-10.742-.445l-75.286,42.929c-2.753,1.591-2.408,4.367.771,6.2L371.86,206.6C375.039,208.436,379.848,208.635,382.6,207.044Z" transform="translate(-325.913 -131.386)"/><path class="u" d="M328.54,165.363l43.318,25.008c3.179,1.836,7.988,2.036,10.742.445l75.286-42.929a4.142,4.142,0,0,0,1.374-1.218c.946,1.522.516,3.174-1.374,4.265L382.6,193.863c-2.755,1.59-7.563,1.391-10.742-.445l-43.318-25.01c-2.47-1.425-3.22-3.417-2.146-4.982A6.011,6.011,0,0,0,328.54,165.363Z" transform="translate(-325.91 -118.205)"/><g transform="translate(28.032 13.889)"><path class="v" d="M367.492,183.214l50.125-29.055c1.289-.743,1.127-2.043-.361-2.9l-20.27-11.7a5.591,5.591,0,0,0-5.027-.209L341.833,168.4c-1.287.743-1.127,2.043.361,2.9l20.27,11.7A5.579,5.579,0,0,0,367.492,183.214Z" transform="translate(-340.964 -138.844)"/><g transform="translate(20.808 12.825)"><path class="l" d="M371.438,149.526l2.905-1.676c.177-.1.155-.283-.05-.4l-2.8-1.618a.772.772,0,0,0-.695-.03l-2.905,1.676c-.179.1-.156.283.05.4l2.8,1.618A.772.772,0,0,0,371.438,149.526Z" transform="translate(-338.657 -145.73)"/><path class="l" d="M366.228,152.522l2.9-1.678c.179-.1.156-.281-.048-.4l-2.8-1.62a.781.781,0,0,0-.7-.028l-2.9,1.676c-.179.1-.156.283.05.4l2.8,1.618A.776.776,0,0,0,366.228,152.522Z" transform="translate(-343.15 -143.146)"/><path class="l" d="M361.018,155.518l2.9-1.678c.179-.1.156-.283-.05-.4l-2.8-1.62a.775.775,0,0,0-.7-.028l-2.9,1.676c-.179.1-.156.283.048.4l2.8,1.618A.776.776,0,0,0,361.018,155.518Z" transform="translate(-347.644 -140.563)"/><path class="l" d="M355.808,158.514l2.9-1.678c.179-.1.156-.283-.05-.4l-2.8-1.62a.766.766,0,0,0-.695-.028l-2.905,1.676c-.177.1-.155.283.05.4l2.8,1.618A.776.776,0,0,0,355.808,158.514Z" transform="translate(-352.137 -137.979)"/></g><path class="q" d="M417.613,154.159l-.06.035c-.1-.071-.188-.142-.3-.209l-20.27-11.7a5.584,5.584,0,0,0-5.027-.207L341.89,171.1c-1.186-.849-1.25-2.008-.06-2.695l50.125-29.055a5.591,5.591,0,0,1,5.027.209l20.27,11.7C418.74,152.116,418.9,153.416,417.613,154.159Z" transform="translate(-340.961 -138.844)"/></g><path class="w" d="M382.6,207.044l75.286-42.929c2.753-1.591,2.408-4.367-.771-6.2L413.8,132.9c-3.179-1.834-7.99-2.034-10.742-.445l-75.286,42.929c-2.753,1.591-2.408,4.367.771,6.2L371.86,206.6C375.039,208.436,379.848,208.635,382.6,207.044Z" transform="translate(-327.913 -141.386)"/><path class="x" d="M382.6,207.044l75.286-42.929c2.753-1.591,2.408-4.367-.771-6.2L413.8,132.9c-3.179-1.834-7.99-2.034-10.742-.445l-75.286,42.929c-2.753,1.591-2.408,4.367.771,6.2L371.86,206.6C375.039,208.436,379.848,208.635,382.6,207.044Z" transform="translate(-332.913 -155.386)"/><g transform="translate(6.086 73.518)"><path class="v" d="M360.585,205.461l-28.5-16.317a6.951,6.951,0,0,1-2.905-5.548V173.405c0-2.138,1.3-3.121,2.905-2.2l28.5,16.317a6.954,6.954,0,0,1,2.9,5.548v10.193C363.488,205.4,362.188,206.386,360.585,205.461Z" transform="translate(-329.181 -170.861)"/><path class="l" d="M330.675,170.883a2.843,2.843,0,0,0-.728,2.119V183.2a6.954,6.954,0,0,0,2.9,5.548l28.5,16.317a2.089,2.089,0,0,0,1.41.307,1.73,1.73,0,0,1-2.173.074l-28.5-16.317a6.951,6.951,0,0,1-2.905-5.548V173.386C329.181,171.933,329.788,171.034,330.675,170.883Z" transform="translate(-329.181 -170.842)"/><g transform="translate(10.843 12.417)"><path class="y" d="M342.943,186.3l-2.613-1.51a1.513,1.513,0,0,1-.633-1.209v-2.792c0-.467.283-.682.633-.479l2.613,1.509a1.513,1.513,0,0,1,.633,1.209v2.794C343.576,186.291,343.293,186.505,342.943,186.3Z" transform="translate(-330.955 -175.192)"/><path class="l" d="M338.251,183.594l-2.615-1.51a1.513,1.513,0,0,1-.633-1.209v-2.792c0-.466.283-.68.633-.479l2.615,1.509a1.52,1.52,0,0,1,.631,1.211v2.792C338.882,183.58,338.6,183.795,338.251,183.594Z" transform="translate(-335.003 -177.528)"/></g></g><g transform="translate(6.086 147.164)"><path class="v" d="M360.585,245l-28.5-16.317a6.951,6.951,0,0,1-2.905-5.548V212.948c0-2.138,1.3-3.121,2.905-2.2l28.5,16.317a6.958,6.958,0,0,1,2.9,5.55V242.81C363.488,244.948,362.188,245.929,360.585,245Z" transform="translate(-329.181 -210.404)"/><path class="l" d="M330.675,210.426a2.845,2.845,0,0,0-.728,2.121v10.191a6.954,6.954,0,0,0,2.9,5.548l28.5,16.317a2.089,2.089,0,0,0,1.41.307,1.728,1.728,0,0,1-2.173.074l-28.5-16.317a6.951,6.951,0,0,1-2.905-5.548V212.929C329.181,211.476,329.788,210.577,330.675,210.426Z" transform="translate(-329.181 -210.385)"/><g transform="translate(10.843 12.417)"><path class="y" d="M342.943,225.847l-2.613-1.51a1.513,1.513,0,0,1-.633-1.209v-2.792c0-.467.283-.682.633-.479l2.613,1.509a1.517,1.517,0,0,1,.633,1.211v2.792C343.576,225.834,343.293,226.048,342.943,225.847Z" transform="translate(-330.955 -214.735)"/><path class="l" d="M338.251,223.136l-2.615-1.509a1.517,1.517,0,0,1-.633-1.211v-2.792c0-.466.283-.68.633-.479l2.615,1.509a1.523,1.523,0,0,1,.631,1.211v2.792C338.882,223.123,338.6,223.338,338.251,223.136Z" transform="translate(-335.003 -217.071)"/></g></g><g transform="translate(6.086 183.986)"><path class="v" d="M360.585,264.776l-28.5-16.317a6.951,6.951,0,0,1-2.905-5.548V232.719c0-2.138,1.3-3.121,2.905-2.194l28.5,16.317a6.954,6.954,0,0,1,2.9,5.548v10.191C363.488,264.719,362.188,265.7,360.585,264.776Z" transform="translate(-329.181 -230.175)"/><path class="l" d="M330.675,230.2a2.84,2.84,0,0,0-.728,2.119v10.191a6.951,6.951,0,0,0,2.9,5.548l28.5,16.318a2.1,2.1,0,0,0,1.41.307,1.73,1.73,0,0,1-2.173.074l-28.5-16.317a6.951,6.951,0,0,1-2.905-5.548V232.7C329.181,231.248,329.788,230.349,330.675,230.2Z" transform="translate(-329.181 -230.156)"/><g transform="translate(10.843 12.417)"><path class="y" d="M342.943,245.617l-2.613-1.509a1.513,1.513,0,0,1-.633-1.209v-2.794c0-.466.283-.68.633-.479l2.613,1.51a1.513,1.513,0,0,1,.633,1.209v2.792C343.576,245.606,343.293,245.82,342.943,245.617Z" transform="translate(-330.955 -234.505)"/><path class="l" d="M338.251,242.909l-2.615-1.51A1.513,1.513,0,0,1,335,240.19V237.4c0-.466.283-.68.633-.479l2.615,1.51a1.517,1.517,0,0,1,.631,1.209v2.794C338.882,242.9,338.6,243.11,338.251,242.909Z" transform="translate(-335.003 -236.842)"/></g></g><g transform="translate(6.086 110.341)"><path class="v" d="M360.585,225.233l-28.5-16.317a6.954,6.954,0,0,1-2.905-5.55V193.176c0-2.138,1.3-3.121,2.905-2.194l28.5,16.317a6.954,6.954,0,0,1,2.9,5.548v10.191C363.488,225.176,362.188,226.159,360.585,225.233Z" transform="translate(-329.181 -190.632)"/><path class="l" d="M330.675,190.655a2.837,2.837,0,0,0-.728,2.119v10.191a6.954,6.954,0,0,0,2.9,5.548l28.5,16.318a2.1,2.1,0,0,0,1.41.307,1.73,1.73,0,0,1-2.173.074l-28.5-16.318a6.948,6.948,0,0,1-2.905-5.548V193.156C329.181,191.705,329.788,190.806,330.675,190.655Z" transform="translate(-329.181 -190.613)"/><g transform="translate(10.843 12.417)"><path class="y" d="M342.943,206.074l-2.613-1.509a1.516,1.516,0,0,1-.633-1.209v-2.794c0-.466.283-.68.633-.479l2.613,1.51a1.513,1.513,0,0,1,.633,1.209V205.6C343.576,206.063,343.293,206.277,342.943,206.074Z" transform="translate(-330.955 -194.962)"/><path class="l" d="M338.251,203.364l-2.615-1.509a1.513,1.513,0,0,1-.633-1.209v-2.794c0-.466.283-.68.633-.479l2.615,1.51a1.517,1.517,0,0,1,.631,1.209v2.794C338.882,203.353,338.6,203.567,338.251,203.364Z" transform="translate(-335.003 -197.299)"/></g></g></g><g transform="translate(59.509 39.763)"><path class="r" d="M360.529,210.66,426.28,172.7a6.382,6.382,0,0,0,2.665-5.092V155.071c0-1.963-1.194-2.864-2.665-2.015l-65.751,37.961a6.38,6.38,0,0,0-2.663,5.09v12.538C357.866,210.606,359.058,211.51,360.529,210.66Z" transform="translate(-357.866 -152.736)"/><path class="z" d="M360.936,204.155l61.974-35.781a3.238,3.238,0,0,0,1.352-2.583v-9.426c0-.995-.605-1.453-1.352-1.022l-61.974,35.782a3.235,3.235,0,0,0-1.352,2.583v9.426C359.584,204.129,360.189,204.587,360.936,204.155Z" transform="translate(-356.384 -150.628)"/><path class="s" d="M387.26,167.876l9.249-5.34a3.147,3.147,0,0,0,1.313-2.509h0c0-.967-.589-1.41-1.313-.993l-9.249,5.341a3.136,3.136,0,0,0-1.313,2.507h0C385.947,167.852,386.534,168.3,387.26,167.876Z" transform="translate(-333.649 -147.439)"/><path class="v" d="M382.42,166.526c0,.967.678,1.358,1.516.875a3.356,3.356,0,0,0,1.516-2.626c0-.967-.68-1.36-1.516-.875A3.351,3.351,0,0,0,382.42,166.526Z" transform="translate(-336.69 -143.288)"/><path class="v" d="M379.548,168.184c0,.967.68,1.358,1.516.874a3.344,3.344,0,0,0,1.516-2.624c0-.967-.678-1.36-1.516-.875A3.353,3.353,0,0,0,379.548,168.184Z" transform="translate(-339.167 -141.858)"/><path class="s" d="M376.677,169.84c0,.967.678,1.36,1.516.875a3.35,3.35,0,0,0,1.516-2.624c0-.968-.68-1.36-1.516-.875A3.344,3.344,0,0,0,376.677,169.84Z" transform="translate(-341.643 -140.428)"/><path class="v" d="M373.8,171.5c0,.967.68,1.36,1.516.875a3.348,3.348,0,0,0,1.516-2.626c0-.967-.678-1.358-1.516-.873A3.35,3.35,0,0,0,373.8,171.5Z" transform="translate(-344.12 -138.998)"/><path class="v" d="M362.1,182.105l3.116-1.8a2.016,2.016,0,0,0,.844-1.609v-3.3c0-.62-.378-.905-.844-.637l-3.116,1.8a2.02,2.02,0,0,0-.842,1.609v3.3C361.257,182.089,361.635,182.373,362.1,182.105Z" transform="translate(-354.942 -133.827)"/></g><g transform="translate(59.509 61.872)"><path class="r" d="M360.529,222.529l65.751-37.96a6.382,6.382,0,0,0,2.665-5.092V166.94c0-1.961-1.194-2.863-2.665-2.013l-65.751,37.96a6.383,6.383,0,0,0-2.663,5.092v12.538C357.866,222.477,359.058,223.381,360.529,222.529Z" transform="translate(-357.866 -164.607)"/><path class="aa" d="M360.936,216.026l61.974-35.781a3.24,3.24,0,0,0,1.352-2.583v-9.426c0-1-.605-1.453-1.352-1.022l-61.974,35.781a3.24,3.24,0,0,0-1.352,2.583V215C359.584,216,360.189,216.456,360.936,216.026Z" transform="translate(-356.384 -162.499)"/><path class="s" d="M387.26,179.748l9.249-5.34a3.147,3.147,0,0,0,1.313-2.509h0c0-.967-.589-1.412-1.313-.993l-9.249,5.341a3.136,3.136,0,0,0-1.313,2.507h0C385.947,179.722,386.534,180.167,387.26,179.748Z" transform="translate(-333.649 -159.31)"/><path class="l" d="M382.42,178.4c0,.967.678,1.358,1.516.875a3.356,3.356,0,0,0,1.516-2.626c0-.967-.68-1.36-1.516-.875A3.348,3.348,0,0,0,382.42,178.4Z" transform="translate(-336.69 -155.159)"/><path class="v" d="M379.548,180.053c0,.968.68,1.36,1.516.875a3.344,3.344,0,0,0,1.516-2.624c0-.967-.678-1.36-1.516-.875A3.349,3.349,0,0,0,379.548,180.053Z" transform="translate(-339.167 -153.729)"/><path class="s" d="M376.677,181.712c0,.967.678,1.36,1.516.875a3.353,3.353,0,0,0,1.516-2.626c0-.967-.68-1.358-1.516-.875A3.35,3.35,0,0,0,376.677,181.712Z" transform="translate(-341.643 -152.299)"/><path class="v" d="M373.8,183.37c0,.967.68,1.36,1.516.875a3.348,3.348,0,0,0,1.516-2.626c0-.967-.678-1.358-1.516-.875A3.356,3.356,0,0,0,373.8,183.37Z" transform="translate(-344.12 -150.869)"/><path class="v" d="M362.1,193.976l3.116-1.8a2.016,2.016,0,0,0,.844-1.609v-3.3c0-.62-.378-.905-.844-.637l-3.116,1.8a2.02,2.02,0,0,0-.842,1.609v3.3C361.257,193.96,361.635,194.245,362.1,193.976Z" transform="translate(-354.942 -145.698)"/></g><g transform="translate(59.509 83.979)"><path class="r" d="M360.529,234.4l65.751-37.96a6.382,6.382,0,0,0,2.665-5.092V178.812c0-1.961-1.194-2.864-2.665-2.013l-65.751,37.96a6.381,6.381,0,0,0-2.663,5.092v12.538C357.866,234.349,359.058,235.25,360.529,234.4Z" transform="translate(-357.866 -176.478)"/><path class="aa" d="M360.936,227.9l61.974-35.781a3.24,3.24,0,0,0,1.352-2.583v-9.426c0-1-.605-1.453-1.352-1.022l-61.974,35.781a3.24,3.24,0,0,0-1.352,2.583v9.426C359.584,227.871,360.189,228.327,360.936,227.9Z" transform="translate(-356.384 -174.369)"/><path class="s" d="M387.26,191.619l9.249-5.34a3.147,3.147,0,0,0,1.313-2.509h0c0-.967-.589-1.412-1.313-.993l-9.249,5.34a3.142,3.142,0,0,0-1.313,2.509h0C385.947,191.593,386.534,192.038,387.26,191.619Z" transform="translate(-333.649 -171.181)"/><path class="l" d="M382.42,190.268c0,.967.678,1.358,1.516.873a3.349,3.349,0,0,0,1.516-2.624c0-.967-.68-1.36-1.516-.875A3.345,3.345,0,0,0,382.42,190.268Z" transform="translate(-336.69 -167.029)"/><path class="v" d="M379.548,191.924c0,.967.68,1.36,1.516.875a3.345,3.345,0,0,0,1.516-2.626c0-.967-.678-1.358-1.516-.874A3.349,3.349,0,0,0,379.548,191.924Z" transform="translate(-339.167 -165.599)"/><path class="s" d="M376.677,193.583c0,.967.678,1.36,1.516.875a3.356,3.356,0,0,0,1.516-2.626c0-.967-.68-1.358-1.516-.875A3.351,3.351,0,0,0,376.677,193.583Z" transform="translate(-341.643 -164.17)"/><path class="v" d="M373.8,195.241c0,.967.68,1.358,1.516.875a3.351,3.351,0,0,0,1.516-2.626c0-.967-.678-1.358-1.516-.875A3.356,3.356,0,0,0,373.8,195.241Z" transform="translate(-344.12 -162.74)"/><path class="v" d="M362.1,205.848l3.116-1.8a2.016,2.016,0,0,0,.844-1.609v-3.3c0-.62-.378-.907-.844-.637l-3.116,1.8a2.02,2.02,0,0,0-.842,1.609v3.3C361.257,205.831,361.635,206.116,362.1,205.848Z" transform="translate(-354.942 -157.568)"/></g><g transform="translate(59.509 106.088)"><path class="r" d="M360.529,246.272l65.751-37.96a6.388,6.388,0,0,0,2.665-5.092V190.683c0-1.961-1.194-2.864-2.665-2.013l-65.751,37.96a6.381,6.381,0,0,0-2.663,5.092v12.538C357.866,246.22,359.058,247.121,360.529,246.272Z" transform="translate(-357.866 -188.349)"/><path class="aa" d="M360.936,239.768l61.974-35.782a3.234,3.234,0,0,0,1.352-2.581v-9.426c0-1-.605-1.454-1.352-1.022l-61.974,35.781a3.24,3.24,0,0,0-1.352,2.583v9.426C359.584,239.74,360.189,240.2,360.936,239.768Z" transform="translate(-356.384 -186.241)"/><path class="s" d="M387.26,203.49l9.249-5.34a3.147,3.147,0,0,0,1.313-2.509h0c0-.967-.589-1.412-1.313-.993l-9.249,5.34a3.142,3.142,0,0,0-1.313,2.509h0C385.947,203.464,386.534,203.909,387.26,203.49Z" transform="translate(-333.649 -183.052)"/><path class="v" d="M382.42,202.137c0,.967.678,1.36,1.516.875a3.35,3.35,0,0,0,1.516-2.626c0-.967-.68-1.358-1.516-.873A3.344,3.344,0,0,0,382.42,202.137Z" transform="translate(-336.69 -178.9)"/><path class="v" d="M379.548,203.8c0,.967.68,1.36,1.516.875a3.348,3.348,0,0,0,1.516-2.626c0-.967-.678-1.358-1.516-.875A3.356,3.356,0,0,0,379.548,203.8Z" transform="translate(-339.167 -177.47)"/><path class="s" d="M376.677,205.454c0,.967.678,1.358,1.516.875a3.356,3.356,0,0,0,1.516-2.626c0-.967-.68-1.358-1.516-.875A3.351,3.351,0,0,0,376.677,205.454Z" transform="translate(-341.643 -176.041)"/><path class="v" d="M373.8,207.112c0,.967.68,1.358,1.516.875a3.351,3.351,0,0,0,1.516-2.626c0-.967-.678-1.36-1.516-.875A3.356,3.356,0,0,0,373.8,207.112Z" transform="translate(-344.12 -174.611)"/><path class="s" d="M362.1,217.717l3.116-1.8a2.023,2.023,0,0,0,.844-1.611v-3.295c0-.622-.378-.907-.844-.637l-3.116,1.8a2.026,2.026,0,0,0-.842,1.611v3.295C361.257,217.7,361.635,217.987,362.1,217.717Z" transform="translate(-354.942 -169.439)"/></g><g transform="translate(59.509 128.196)"><path class="r" d="M360.529,258.143l65.751-37.96a6.388,6.388,0,0,0,2.665-5.092V202.554c0-1.963-1.194-2.864-2.665-2.015L360.529,238.5a6.381,6.381,0,0,0-2.663,5.092v12.536C357.866,258.091,359.058,258.993,360.529,258.143Z" transform="translate(-357.866 -200.219)"/><path class="aa" d="M360.936,251.639l61.974-35.782a3.235,3.235,0,0,0,1.352-2.583V203.85c0-1-.605-1.455-1.352-1.022l-61.974,35.781a3.238,3.238,0,0,0-1.352,2.583v9.426C359.584,251.611,360.189,252.069,360.936,251.639Z" transform="translate(-356.384 -198.111)"/><path class="s" d="M387.26,215.361l9.249-5.341a3.141,3.141,0,0,0,1.313-2.507h0c0-.967-.589-1.412-1.313-.993l-9.249,5.34a3.142,3.142,0,0,0-1.313,2.509h0C385.947,215.335,386.534,215.778,387.26,215.361Z" transform="translate(-333.649 -194.922)"/><path class="v" d="M382.42,214.009c0,.967.678,1.36,1.516.875a3.353,3.353,0,0,0,1.516-2.626c0-.967-.68-1.358-1.516-.875A3.351,3.351,0,0,0,382.42,214.009Z" transform="translate(-336.69 -190.77)"/><path class="l" d="M379.548,215.667c0,.967.68,1.36,1.516.875a3.351,3.351,0,0,0,1.516-2.626c0-.967-.678-1.358-1.516-.875A3.356,3.356,0,0,0,379.548,215.667Z" transform="translate(-339.167 -189.34)"/><path class="s" d="M376.677,217.325c0,.967.678,1.358,1.516.875a3.356,3.356,0,0,0,1.516-2.626c0-.967-.68-1.358-1.516-.875A3.351,3.351,0,0,0,376.677,217.325Z" transform="translate(-341.643 -187.91)"/><path class="l" d="M373.8,218.983c0,.967.68,1.358,1.516.875a3.351,3.351,0,0,0,1.516-2.626c0-.967-.678-1.36-1.516-.875A3.353,3.353,0,0,0,373.8,218.983Z" transform="translate(-344.12 -186.481)"/><path class="s" d="M362.1,229.588l3.116-1.8a2.023,2.023,0,0,0,.844-1.611v-3.3c0-.62-.378-.905-.844-.637l-3.116,1.8a2.021,2.021,0,0,0-.842,1.611v3.295C361.257,229.572,361.635,229.858,362.1,229.588Z" transform="translate(-354.942 -181.31)"/></g><g transform="translate(59.509 150.304)"><path class="r" d="M360.529,270.014l65.751-37.962a6.381,6.381,0,0,0,2.665-5.09V214.425c0-1.963-1.194-2.864-2.665-2.015l-65.751,37.962a6.38,6.38,0,0,0-2.663,5.09V268C357.866,269.962,359.058,270.864,360.529,270.014Z" transform="translate(-357.866 -212.09)"/><path class="aa" d="M360.936,263.51l61.974-35.782a3.235,3.235,0,0,0,1.352-2.583v-9.426c0-.995-.605-1.453-1.352-1.021l-61.974,35.781a3.235,3.235,0,0,0-1.352,2.583v9.426C359.584,263.482,360.189,263.94,360.936,263.51Z" transform="translate(-356.384 -209.982)"/><path class="s" d="M387.26,227.232l9.249-5.341a3.141,3.141,0,0,0,1.313-2.507h0c0-.967-.589-1.412-1.313-.993l-9.249,5.34a3.142,3.142,0,0,0-1.313,2.509h0C385.947,227.206,386.534,227.649,387.26,227.232Z" transform="translate(-333.649 -206.793)"/><path class="v" d="M382.42,225.88c0,.967.678,1.36,1.516.875a3.353,3.353,0,0,0,1.516-2.626c0-.967-.68-1.358-1.516-.875A3.351,3.351,0,0,0,382.42,225.88Z" transform="translate(-336.69 -202.641)"/><path class="v" d="M379.548,227.538c0,.967.68,1.358,1.516.875a3.351,3.351,0,0,0,1.516-2.626c0-.967-.678-1.358-1.516-.875A3.356,3.356,0,0,0,379.548,227.538Z" transform="translate(-339.167 -201.211)"/><path class="s" d="M376.677,229.2c0,.967.678,1.358,1.516.875a3.356,3.356,0,0,0,1.516-2.626c0-.967-.68-1.36-1.516-.875A3.348,3.348,0,0,0,376.677,229.2Z" transform="translate(-341.643 -199.782)"/><path class="v" d="M373.8,230.852c0,.968.68,1.36,1.516.875a3.345,3.345,0,0,0,1.516-2.624c0-.967-.678-1.36-1.516-.875A3.35,3.35,0,0,0,373.8,230.852Z" transform="translate(-344.12 -198.352)"/><path class="v" d="M362.1,241.459l3.116-1.8a2.023,2.023,0,0,0,.844-1.611v-3.3c0-.62-.378-.905-.844-.637l-3.116,1.8a2.02,2.02,0,0,0-.842,1.609v3.3C361.257,241.443,361.635,241.728,362.1,241.459Z" transform="translate(-354.942 -193.181)"/></g><g transform="translate(59.509 172.413)"><path class="r" d="M360.529,281.885l65.751-37.962a6.381,6.381,0,0,0,2.665-5.09V226.3c0-1.963-1.194-2.864-2.665-2.015l-65.751,37.962a6.38,6.38,0,0,0-2.663,5.09V279.87C357.866,281.833,359.058,282.735,360.529,281.885Z" transform="translate(-357.866 -223.961)"/><path class="aa" d="M360.936,275.379,422.91,239.6a3.235,3.235,0,0,0,1.352-2.583V227.59c0-.995-.605-1.453-1.352-1.021L360.936,262.35a3.235,3.235,0,0,0-1.352,2.583v9.426C359.584,275.353,360.189,275.811,360.936,275.379Z" transform="translate(-356.384 -221.853)"/><path class="s" d="M387.26,239.1l9.249-5.34a3.147,3.147,0,0,0,1.313-2.509h0c0-.967-.589-1.41-1.313-.991l-9.249,5.34a3.139,3.139,0,0,0-1.313,2.509h0C385.947,239.077,386.534,239.52,387.26,239.1Z" transform="translate(-333.649 -218.664)"/><path class="l" d="M381.512,239.56c0,1.825,1.281,2.565,2.864,1.652a6.327,6.327,0,0,0,2.863-4.96c0-1.825-1.281-2.566-2.863-1.652A6.324,6.324,0,0,0,381.512,239.56Z" transform="translate(-337.473 -215.124)"/><path class="v" d="M375.565,241.874c0,.967.678,1.358,1.516.875a3.356,3.356,0,0,0,1.516-2.626c0-.967-.68-1.36-1.516-.875A3.345,3.345,0,0,0,375.565,241.874Z" transform="translate(-342.602 -210.957)"/><path class="s" d="M372.693,243.53c0,.967.68,1.36,1.516.875a3.344,3.344,0,0,0,1.516-2.624c0-.967-.678-1.36-1.516-.875A3.349,3.349,0,0,0,372.693,243.53Z" transform="translate(-345.079 -209.527)"/><path class="v" d="M369.822,245.189c0,.967.678,1.36,1.516.875a3.353,3.353,0,0,0,1.516-2.626c0-.967-.68-1.358-1.516-.875A3.351,3.351,0,0,0,369.822,245.189Z" transform="translate(-347.555 -208.098)"/><path class="s" d="M362.1,253.33l3.116-1.8a2.016,2.016,0,0,0,.844-1.609v-3.3c0-.62-.378-.905-.844-.637l-3.116,1.8a2.02,2.02,0,0,0-.842,1.609v3.3C361.257,253.314,361.635,253.6,362.1,253.33Z" transform="translate(-354.942 -205.052)"/></g></g></g><g transform="translate(1229 3286)"><path class="m" d="M469.2,286.806,424.495,261c-5.042-2.911-9.13-10.722-9.13-17.445V124.5c0-3.419-2.811-4.175-1.108-5.4.064-.047,6.822-3.077,6.9-3.105a6.592,6.592,0,0,1,6.173.359l44.7,25.81c5.043,2.911,9.131,10.722,9.131,17.445V278.657c0,3.573-1.154,6.119-2.993,7.285-.108.069-7.67,3.565-7.791,3.605C468.747,290.09,471.4,288.079,469.2,286.806Z"/><path class="ab" d="M469.2,286.806,424.495,261c-5.042-2.911-9.13-10.722-9.13-17.445V124.5c0-3.419-2.811-4.175-1.108-5.4.064-.047,6.711-3.036,6.785-3.064a6.591,6.591,0,0,1,6.174.359l44.7,25.81c5.043,2.911,9.13,10.722,9.13,17.445V278.7c0,3.573-1.154,6.119-2.992,7.285-.109.069-7.56,3.524-7.681,3.564C468.747,290.09,471.4,288.079,469.2,286.806Z"/><path class="ac" d="M469.2,286.806,424.495,261c-5.042-2.911-9.13-10.722-9.13-17.445V124.5c0-3.419-2.811-4.175-1.108-5.4.064-.047,6.6-3,6.675-3.024a6.594,6.594,0,0,1,6.174.36l44.7,25.81c5.042,2.911,9.13,10.722,9.13,17.445V278.739c0,3.572-1.154,6.119-2.992,7.285-.109.069-7.45,3.483-7.571,3.523C468.747,290.09,471.4,288.079,469.2,286.806Z"/><path class="ad" d="M469.2,286.806,424.495,261c-5.042-2.911-9.13-10.722-9.13-17.445V124.5c0-3.419-2.811-4.175-1.108-5.4.064-.047,6.491-2.954,6.565-2.983a6.594,6.594,0,0,1,6.174.36l44.7,25.81c5.042,2.911,9.13,10.722,9.13,17.445V278.78c0,3.572-1.154,6.119-2.992,7.285-.109.069-7.34,3.442-7.461,3.482C468.747,290.09,471.4,288.079,469.2,286.806Z"/><path class="ae" d="M469.2,286.806,424.495,261c-5.042-2.911-9.13-10.722-9.13-17.445V124.5c0-3.419-2.811-4.175-1.108-5.4.064-.047,6.381-2.914,6.455-2.942a6.591,6.591,0,0,1,6.174.36l44.7,25.81c5.043,2.911,9.131,10.721,9.131,17.445V278.821c0,3.572-1.154,6.119-2.992,7.285-.109.069-7.23,3.4-7.351,3.441C468.747,290.09,471.4,288.079,469.2,286.806Z"/><path class="af" d="M469.2,286.806,424.495,261c-5.042-2.911-9.13-10.722-9.13-17.445V124.5c0-3.419-2.811-4.175-1.108-5.4.064-.047,6.271-2.873,6.345-2.9a6.591,6.591,0,0,1,6.174.36l44.7,25.809c5.043,2.912,9.131,10.722,9.131,17.446V278.862c0,3.572-1.154,6.119-2.993,7.285-.108.069-7.119,3.36-7.24,3.4C468.747,290.09,471.4,288.079,469.2,286.806Z"/><path class="ag" d="M469.2,286.806,424.495,261c-5.042-2.911-9.13-10.722-9.13-17.445V124.5c0-3.419-2.811-4.175-1.108-5.4.064-.047,6.161-2.832,6.235-2.86a6.589,6.589,0,0,1,6.173.36l44.7,25.809c5.043,2.911,9.131,10.722,9.131,17.446V278.9c0,3.573-1.155,6.12-2.993,7.285-.109.069-7.009,3.32-7.13,3.36C468.747,290.09,471.4,288.079,469.2,286.806Z"/><path class="ah" d="M469.2,286.806,424.495,261c-5.042-2.911-9.13-10.722-9.13-17.445V124.5c0-3.419-2.811-4.175-1.108-5.4.064-.047,6.05-2.791,6.124-2.819a6.594,6.594,0,0,1,6.174.359l44.7,25.81c5.042,2.911,9.13,10.722,9.13,17.445V278.943c0,3.573-1.154,6.12-2.992,7.285-.109.069-6.9,3.279-7.02,3.319C468.747,290.09,471.4,288.079,469.2,286.806Z"/><path class="ai" d="M469.2,286.806,424.495,261c-5.042-2.911-9.13-10.722-9.13-17.445V124.5c0-3.419-2.811-4.175-1.108-5.4.064-.047,5.94-2.75,6.014-2.778a6.591,6.591,0,0,1,6.174.359l44.7,25.81c5.042,2.911,9.13,10.722,9.13,17.445V278.984c0,3.573-1.154,6.119-2.992,7.285-.109.069-6.789,3.238-6.91,3.278C468.747,290.09,471.4,288.079,469.2,286.806Z"/><path class="aj" d="M469.2,286.806,424.495,261c-5.042-2.911-9.13-10.722-9.13-17.445V124.5c0-3.419-2.811-4.175-1.108-5.4.064-.047,5.83-2.709,5.9-2.738a6.594,6.594,0,0,1,6.174.36l44.7,25.81c5.043,2.911,9.131,10.722,9.131,17.445V279.025c0,3.572-1.154,6.119-2.992,7.285-.109.069-6.679,3.2-6.8,3.237C468.747,290.09,471.4,288.079,469.2,286.806Z"/><path class="ak" d="M469.2,286.806,424.495,261c-5.042-2.911-9.13-10.722-9.13-17.445V124.5c0-3.419-2.811-4.175-1.108-5.4.064-.047,5.72-2.668,5.794-2.7a6.591,6.591,0,0,1,6.174.36l44.7,25.81c5.043,2.911,9.131,10.722,9.131,17.445V279.066c0,3.572-1.154,6.119-2.993,7.285-.108.069-6.568,3.156-6.689,3.2C468.747,290.09,471.4,288.079,469.2,286.806Z"/><path class="al" d="M469.2,286.806,424.495,261c-5.042-2.911-9.13-10.722-9.13-17.445V124.5c0-3.419-2.811-4.175-1.108-5.4.064-.047,5.61-2.628,5.684-2.656a6.589,6.589,0,0,1,6.173.36l44.7,25.809c5.043,2.912,9.131,10.722,9.131,17.446V279.107c0,3.572-1.155,6.119-2.993,7.285-.109.069-6.458,3.115-6.579,3.155C468.747,290.09,471.4,288.079,469.2,286.806Z"/><path class="am" d="M469.2,286.806,424.495,261c-5.042-2.911-9.13-10.722-9.13-17.445V124.5c0-3.419-2.811-4.175-1.108-5.4.064-.047,5.5-2.587,5.573-2.615a6.591,6.591,0,0,1,6.174.36l44.7,25.809c5.043,2.912,9.13,10.722,9.13,17.446V279.147c0,3.573-1.154,6.12-2.992,7.286-.109.069-6.348,3.074-6.469,3.114C468.747,290.09,471.4,288.079,469.2,286.806Z"/><path class="an" d="M469.2,286.806,424.495,261c-5.042-2.911-9.13-10.722-9.13-17.445V124.5c0-3.419-2.811-4.175-1.108-5.4.064-.047,5.389-2.546,5.463-2.574a6.594,6.594,0,0,1,6.174.359l44.7,25.81c5.042,2.911,9.13,10.722,9.13,17.445V279.188c0,3.573-1.154,6.12-2.992,7.285-.109.069-6.238,3.034-6.359,3.074C468.747,290.09,471.4,288.079,469.2,286.806Z"/><path class="ao" d="M469.2,286.806,424.495,261c-5.042-2.911-9.13-10.722-9.13-17.445V124.5c0-3.419-2.811-4.175-1.108-5.4.064-.047,5.279-2.5,5.353-2.533a6.594,6.594,0,0,1,6.174.359l44.7,25.81c5.042,2.911,9.13,10.722,9.13,17.445V279.229c0,3.573-1.154,6.119-2.992,7.285-.109.069-6.128,2.993-6.249,3.033C468.747,290.09,471.4,288.079,469.2,286.806Z"/><path class="ap" d="M469.2,286.806,424.495,261c-5.042-2.911-9.13-10.722-9.13-17.445V124.5c0-3.419-2.811-4.175-1.108-5.4.064-.047,5.169-2.464,5.243-2.492a6.591,6.591,0,0,1,6.174.359l44.7,25.81c5.043,2.911,9.131,10.722,9.131,17.445V279.27c0,3.573-1.154,6.119-2.993,7.285-.108.069-6.017,2.952-6.138,2.992C468.747,290.09,471.4,288.079,469.2,286.806Z"/><path class="aq" d="M469.2,286.806,424.495,261c-5.042-2.911-9.13-10.722-9.13-17.445V124.5c0-3.419-2.811-4.175-1.108-5.4.064-.047,5.059-2.423,5.133-2.452a6.592,6.592,0,0,1,6.173.36l44.7,25.81c5.043,2.911,9.131,10.722,9.131,17.445V279.311c0,3.572-1.155,6.119-2.993,7.285-.109.069-5.907,2.911-6.028,2.951C468.747,290.09,471.4,288.079,469.2,286.806Z"/><path class="ar" d="M469.2,286.806,424.495,261c-5.042-2.911-9.13-10.722-9.13-17.445V124.5c0-3.419-2.811-4.175-1.108-5.4.064-.047,4.948-2.383,5.022-2.411a6.591,6.591,0,0,1,6.174.36l44.7,25.81c5.043,2.911,9.13,10.722,9.13,17.445V279.352c0,3.572-1.154,6.119-2.992,7.285-.109.069-5.8,2.87-5.918,2.91C468.747,290.09,471.4,288.079,469.2,286.806Z"/><path class="as" d="M469.2,286.806,424.495,261c-5.042-2.911-9.13-10.722-9.13-17.445V124.5c0-3.419-2.811-4.175-1.108-5.4.064-.047,4.838-2.342,4.912-2.37a6.591,6.591,0,0,1,6.174.36l44.7,25.809c5.042,2.912,9.13,10.722,9.13,17.446V279.393c0,3.572-1.154,6.119-2.992,7.285-.109.069-5.687,2.829-5.808,2.869C468.747,290.09,471.4,288.079,469.2,286.806Z"/><path class="at" d="M469.2,286.806,424.495,261c-5.042-2.911-9.13-10.722-9.13-17.445V124.5c0-3.419-2.811-4.175-1.108-5.4.064-.047,4.728-2.3,4.8-2.329a6.591,6.591,0,0,1,6.174.36l44.7,25.809c5.042,2.912,9.13,10.722,9.13,17.446V279.433c0,3.573-1.154,6.12-2.992,7.285-.109.069-5.577,2.789-5.7,2.829C468.747,290.09,471.4,288.079,469.2,286.806Z"/><path class="au" d="M469.2,286.806,424.495,261c-5.042-2.911-9.13-10.722-9.13-17.445V124.5c0-3.419-2.811-4.175-1.108-5.4.064-.047,4.618-2.26,4.692-2.288a6.594,6.594,0,0,1,6.174.359l44.7,25.81c5.043,2.911,9.131,10.722,9.131,17.445V279.474c0,3.573-1.154,6.12-2.992,7.285-.109.069-5.467,2.748-5.588,2.788C468.747,290.09,471.4,288.079,469.2,286.806Z"/><path class="d" d="M469.2,286.806,424.495,261c-5.042-2.911-9.13-10.722-9.13-17.445V124.5c0-3.419-2.811-4.175-1.108-5.4.064-.047,4.508-2.219,4.582-2.247a6.589,6.589,0,0,1,6.173.359l44.7,25.81c5.043,2.911,9.131,10.722,9.131,17.445V279.515c0,3.573-1.154,6.119-2.993,7.285-.109.069-5.356,2.707-5.477,2.747C468.747,290.09,471.4,288.079,469.2,286.806Z"/><path class="l" d="M464.931,288.824l-44.7-25.81c-5.042-2.912-9.13-10.722-9.13-17.446V126.516c0-6.723,4.088-9.813,9.13-6.9l44.7,25.81c5.043,2.911,9.131,10.722,9.131,17.445V281.921C474.062,288.645,469.974,291.735,464.931,288.824Z"/><path class="av" d="M468.556,289.015a6.419,6.419,0,0,1-3.172-.975l-44.705-25.81c-4.785-2.762-8.678-10.236-8.678-16.661V126.517c0-4.309,1.806-7.094,4.6-7.094a6.427,6.427,0,0,1,3.172.974l44.7,25.81c4.785,2.763,8.678,10.237,8.678,16.662V281.921C473.157,286.23,471.351,289.015,468.556,289.015Z"/><path class="m" d="M414.121,247.085V128.491c0-4.934,3-7.2,6.7-5.065l43.518,25.125c3.7,2.136,6.7,7.867,6.7,12.8V279.947c0,4.933-3,7.2-6.7,5.065L420.82,259.886C417.12,257.75,414.121,252.019,414.121,247.085Z"/><path class="i" d="M421.324,124.738c-3.487-2.014-6.314-.4-6.314,3.6V248.266a13.914,13.914,0,0,0,6.314,10.891l42.51,24.543c3.488,2.013,6.315.4,6.315-3.6V160.172a13.911,13.911,0,0,0-6.315-10.891Z"/><path class="aw" d="M477.492,201.995h0c-1.283.741-2.323-.045-2.323-1.755v-9.688a5.564,5.564,0,0,1,2.323-4.438h0c1.283-.74,2.322.046,2.322,1.756v9.688A5.559,5.559,0,0,1,477.492,201.995Z"/></g><g transform="translate(559 3559)"><ellipse class="ax" cx="34.365" cy="19.84" rx="34.365" ry="19.84" transform="translate(387.134 170.929)"/><path class="r" d="M462.217,176.855V164.861h-2.264a27.292,27.292,0,0,0-10.248-9.585c-16.683-9.632-43.731-9.632-60.413,0a27.277,27.277,0,0,0-10.248,9.585h-2.261V176.79h0c-.029,6.334,4.137,12.673,12.507,17.505,16.683,9.632,43.73,9.632,60.413,0C458.047,189.48,462.218,183.167,462.217,176.855Z"/><path class="r" d="M449.7,155.276c-8.341-4.816-19.273-7.224-30.2-7.224v53.467c10.932,0,21.865-2.407,30.206-7.223s12.512-11.129,12.511-17.441V164.861h-2.264A27.292,27.292,0,0,0,449.7,155.276Z"/><ellipse class="v" cx="42.718" cy="24.663" rx="42.718" ry="24.663" transform="translate(376.781 140.198)"/><path class="l" d="M449.706,182.3c-16.683,9.632-43.73,9.632-60.413,0-7.995-4.615-12.116-10.607-12.447-16.655-.361,6.572,3.759,13.21,12.447,18.225,16.683,9.632,43.73,9.632,60.413,0,8.687-5.015,12.807-11.652,12.446-18.224C461.821,171.693,457.7,177.685,449.706,182.3Z"/></g><path class="l" d="M402.469,165.941l16.724-9.656c1.891-1.092,5.117-.619,5.876.862l7.031,13.715c.794,1.549-1.7,2.989-4.383,2.531l-23.755-4.06C401.4,168.9,400.577,167.033,402.469,165.941Z" transform="translate(559 3556)"/><path class="l" d="M11471.542,3490.464l-15.711-12.741,17.627-1.629Z" transform="translate(-10326 -16)"/><path class="l" d="M8.561,2.571a1,1,0,0,1,1.879,0l8.07,22.086A1,1,0,0,1,17.57,26H1.43a1,1,0,0,1-.939-1.343Z" transform="translate(1604.614 3267.345) rotate(-17)"/><path class="l" d="M8.561,2.571a1,1,0,0,1,1.879,0l8.07,22.086A1,1,0,0,1,17.57,26H1.43a1,1,0,0,1-.939-1.343Z" transform="translate(1652.614 3472.345) rotate(-17)"/><path class="l" d="M8.561,2.571a1,1,0,0,1,1.879,0l8.07,22.086A1,1,0,0,1,17.57,26H1.43a1,1,0,0,1-.939-1.343Z" transform="translate(1440.614 3306.345) rotate(-17)"/></g></svg>