<svg width="92" height="14" viewBox="0 0 92 14" fill="none" xmlns="http://www.w3.org/2000/svg">
<path d="M5.844 5.68C6.332 5.784 6.724 6.028 7.02 6.412C7.316 6.788 7.464 7.22 7.464 7.708C7.464 8.412 7.216 8.972 6.72 9.388C6.232 9.796 5.548 10 4.668 10H0.744V1.576H4.536C5.392 1.576 6.06 1.772 6.54 2.164C7.028 2.556 7.272 3.088 7.272 3.76C7.272 4.256 7.14 4.668 6.876 4.996C6.62 5.324 6.276 5.552 5.844 5.68ZM2.796 4.984H4.14C4.476 4.984 4.732 4.912 4.908 4.768C5.092 4.616 5.184 4.396 5.184 4.108C5.184 3.82 5.092 3.6 4.908 3.448C4.732 3.296 4.476 3.22 4.14 3.22H2.796V4.984ZM4.308 8.344C4.652 8.344 4.916 8.268 5.1 8.116C5.292 7.956 5.388 7.728 5.388 7.432C5.388 7.136 5.288 6.904 5.088 6.736C4.896 6.568 4.628 6.484 4.284 6.484H2.796V8.344H4.308ZM14.9662 6.544C14.9662 6.736 14.9542 6.936 14.9302 7.144H10.2862C10.3182 7.56 10.4502 7.88 10.6822 8.104C10.9222 8.32 11.2142 8.428 11.5582 8.428C12.0702 8.428 12.4262 8.212 12.6262 7.78H14.8102C14.6982 8.22 14.4942 8.616 14.1982 8.968C13.9102 9.32 13.5462 9.596 13.1062 9.796C12.6662 9.996 12.1742 10.096 11.6302 10.096C10.9742 10.096 10.3902 9.956 9.87816 9.676C9.36616 9.396 8.96616 8.996 8.67816 8.476C8.39016 7.956 8.24616 7.348 8.24616 6.652C8.24616 5.956 8.38616 5.348 8.66616 4.828C8.95416 4.308 9.35416 3.908 9.86616 3.628C10.3782 3.348 10.9662 3.208 11.6302 3.208C12.2782 3.208 12.8542 3.344 13.3582 3.616C13.8622 3.888 14.2542 4.276 14.5342 4.78C14.8222 5.284 14.9662 5.872 14.9662 6.544ZM12.8662 6.004C12.8662 5.652 12.7462 5.372 12.5062 5.164C12.2662 4.956 11.9662 4.852 11.6062 4.852C11.2622 4.852 10.9702 4.952 10.7302 5.152C10.4982 5.352 10.3542 5.636 10.2982 6.004H12.8662ZM17.0807 2.608C16.7207 2.608 16.4247 2.504 16.1927 2.296C15.9687 2.08 15.8567 1.816 15.8567 1.504C15.8567 1.184 15.9687 0.92 16.1927 0.711999C16.4247 0.495999 16.7207 0.387999 17.0807 0.387999C17.4327 0.387999 17.7207 0.495999 17.9447 0.711999C18.1767 0.92 18.2927 1.184 18.2927 1.504C18.2927 1.816 18.1767 2.08 17.9447 2.296C17.7207 2.504 17.4327 2.608 17.0807 2.608ZM18.1007 3.304V10H16.0487V3.304H18.1007ZM23.6678 3.232C24.4518 3.232 25.0758 3.488 25.5398 4C26.0118 4.504 26.2478 5.2 26.2478 6.088V10H24.2078V6.364C24.2078 5.916 24.0918 5.568 23.8598 5.32C23.6278 5.072 23.3158 4.948 22.9238 4.948C22.5318 4.948 22.2198 5.072 21.9878 5.32C21.7558 5.568 21.6398 5.916 21.6398 6.364V10H19.5878V3.304H21.6398V4.192C21.8478 3.896 22.1278 3.664 22.4798 3.496C22.8318 3.32 23.2278 3.232 23.6678 3.232ZM30.2177 3.208C30.6897 3.208 31.1017 3.304 31.4537 3.496C31.8137 3.688 32.0897 3.94 32.2817 4.252V3.304H34.3337V9.988C34.3337 10.604 34.2097 11.16 33.9617 11.656C33.7217 12.16 33.3497 12.56 32.8457 12.856C32.3497 13.152 31.7297 13.3 30.9857 13.3C29.9937 13.3 29.1897 13.064 28.5737 12.592C27.9577 12.128 27.6057 11.496 27.5177 10.696H29.5457C29.6097 10.952 29.7617 11.152 30.0017 11.296C30.2417 11.448 30.5377 11.524 30.8897 11.524C31.3137 11.524 31.6497 11.4 31.8977 11.152C32.1537 10.912 32.2817 10.524 32.2817 9.988V9.04C32.0817 9.352 31.8057 9.608 31.4537 9.808C31.1017 10 30.6897 10.096 30.2177 10.096C29.6657 10.096 29.1657 9.956 28.7177 9.676C28.2697 9.388 27.9137 8.984 27.6497 8.464C27.3937 7.936 27.2657 7.328 27.2657 6.64C27.2657 5.952 27.3937 5.348 27.6497 4.828C27.9137 4.308 28.2697 3.908 28.7177 3.628C29.1657 3.348 29.6657 3.208 30.2177 3.208ZM32.2817 6.652C32.2817 6.14 32.1377 5.736 31.8497 5.44C31.5697 5.144 31.2257 4.996 30.8177 4.996C30.4097 4.996 30.0617 5.144 29.7737 5.44C29.4937 5.728 29.3537 6.128 29.3537 6.64C29.3537 7.152 29.4937 7.56 29.7737 7.864C30.0617 8.16 30.4097 8.308 30.8177 8.308C31.2257 8.308 31.5697 8.16 31.8497 7.864C32.1377 7.568 32.2817 7.164 32.2817 6.652ZM40.4132 3.22V4.924H43.1612V6.508H40.4132V8.356H43.5212V10H38.3612V1.576H43.5212V3.22H40.4132ZM48.9334 3.232C49.7174 3.232 50.3414 3.488 50.8054 4C51.2774 4.504 51.5134 5.2 51.5134 6.088V10H49.4734V6.364C49.4734 5.916 49.3574 5.568 49.1254 5.32C48.8934 5.072 48.5814 4.948 48.1894 4.948C47.7974 4.948 47.4854 5.072 47.2534 5.32C47.0214 5.568 46.9054 5.916 46.9054 6.364V10H44.8534V3.304H46.9054V4.192C47.1134 3.896 47.3934 3.664 47.7454 3.496C48.0974 3.32 48.4934 3.232 48.9334 3.232ZM55.4833 3.208C55.9553 3.208 56.3673 3.304 56.7193 3.496C57.0793 3.688 57.3553 3.94 57.5473 4.252V3.304H59.5993V9.988C59.5993 10.604 59.4753 11.16 59.2273 11.656C58.9873 12.16 58.6153 12.56 58.1113 12.856C57.6153 13.152 56.9953 13.3 56.2513 13.3C55.2593 13.3 54.4553 13.064 53.8393 12.592C53.2233 12.128 52.8713 11.496 52.7833 10.696H54.8113C54.8753 10.952 55.0273 11.152 55.2673 11.296C55.5073 11.448 55.8033 11.524 56.1553 11.524C56.5793 11.524 56.9153 11.4 57.1633 11.152C57.4193 10.912 57.5473 10.524 57.5473 9.988V9.04C57.3473 9.352 57.0713 9.608 56.7193 9.808C56.3673 10 55.9553 10.096 55.4833 10.096C54.9313 10.096 54.4313 9.956 53.9833 9.676C53.5353 9.388 53.1793 8.984 52.9153 8.464C52.6593 7.936 52.5313 7.328 52.5313 6.64C52.5313 5.952 52.6593 5.348 52.9153 4.828C53.1793 4.308 53.5353 3.908 53.9833 3.628C54.4313 3.348 54.9313 3.208 55.4833 3.208ZM57.5473 6.652C57.5473 6.14 57.4033 5.736 57.1153 5.44C56.8353 5.144 56.4913 4.996 56.0833 4.996C55.6753 4.996 55.3273 5.144 55.0393 5.44C54.7593 5.728 54.6193 6.128 54.6193 6.64C54.6193 7.152 54.7593 7.56 55.0393 7.864C55.3273 8.16 55.6753 8.308 56.0833 8.308C56.4913 8.308 56.8353 8.16 57.1153 7.864C57.4033 7.568 57.5473 7.164 57.5473 6.652ZM62.1158 2.608C61.7558 2.608 61.4598 2.504 61.2278 2.296C61.0038 2.08 60.8918 1.816 60.8918 1.504C60.8918 1.184 61.0038 0.92 61.2278 0.711999C61.4598 0.495999 61.7558 0.387999 62.1158 0.387999C62.4678 0.387999 62.7558 0.495999 62.9798 0.711999C63.2118 0.92 63.3278 1.184 63.3278 1.504C63.3278 1.816 63.2118 2.08 62.9798 2.296C62.7558 2.504 62.4678 2.608 62.1158 2.608ZM63.1358 3.304V10H61.0838V3.304H63.1358ZM68.7029 3.232C69.4869 3.232 70.1109 3.488 70.5749 4C71.0469 4.504 71.2829 5.2 71.2829 6.088V10H69.2429V6.364C69.2429 5.916 69.1269 5.568 68.8949 5.32C68.6629 5.072 68.3509 4.948 67.9589 4.948C67.5669 4.948 67.2549 5.072 67.0229 5.32C66.7909 5.568 66.6749 5.916 66.6749 6.364V10H64.6229V3.304H66.6749V4.192C66.8829 3.896 67.1629 3.664 67.5149 3.496C67.8669 3.32 68.2629 3.232 68.7029 3.232ZM79.0208 6.544C79.0208 6.736 79.0088 6.936 78.9848 7.144H74.3408C74.3728 7.56 74.5048 7.88 74.7368 8.104C74.9768 8.32 75.2688 8.428 75.6128 8.428C76.1248 8.428 76.4808 8.212 76.6808 7.78H78.8648C78.7528 8.22 78.5488 8.616 78.2528 8.968C77.9648 9.32 77.6008 9.596 77.1608 9.796C76.7208 9.996 76.2288 10.096 75.6848 10.096C75.0288 10.096 74.4448 9.956 73.9328 9.676C73.4208 9.396 73.0208 8.996 72.7328 8.476C72.4448 7.956 72.3008 7.348 72.3008 6.652C72.3008 5.956 72.4408 5.348 72.7208 4.828C73.0088 4.308 73.4088 3.908 73.9208 3.628C74.4328 3.348 75.0208 3.208 75.6848 3.208C76.3328 3.208 76.9088 3.344 77.4128 3.616C77.9168 3.888 78.3088 4.276 78.5888 4.78C78.8768 5.284 79.0208 5.872 79.0208 6.544ZM76.9208 6.004C76.9208 5.652 76.8008 5.372 76.5608 5.164C76.3208 4.956 76.0208 4.852 75.6608 4.852C75.3168 4.852 75.0248 4.952 74.7848 5.152C74.5528 5.352 74.4088 5.636 74.3528 6.004H76.9208ZM86.4154 6.544C86.4154 6.736 86.4034 6.936 86.3794 7.144H81.7354C81.7674 7.56 81.8994 7.88 82.1314 8.104C82.3714 8.32 82.6634 8.428 83.0074 8.428C83.5194 8.428 83.8754 8.212 84.0754 7.78H86.2594C86.1474 8.22 85.9434 8.616 85.6474 8.968C85.3594 9.32 84.9954 9.596 84.5554 9.796C84.1154 9.996 83.6234 10.096 83.0794 10.096C82.4234 10.096 81.8394 9.956 81.3274 9.676C80.8154 9.396 80.4154 8.996 80.1274 8.476C79.8394 7.956 79.6954 7.348 79.6954 6.652C79.6954 5.956 79.8354 5.348 80.1154 4.828C80.4034 4.308 80.8034 3.908 81.3154 3.628C81.8274 3.348 82.4154 3.208 83.0794 3.208C83.7274 3.208 84.3034 3.344 84.8074 3.616C85.3114 3.888 85.7034 4.276 85.9834 4.78C86.2714 5.284 86.4154 5.872 86.4154 6.544ZM84.3154 6.004C84.3154 5.652 84.1954 5.372 83.9554 5.164C83.7154 4.956 83.4154 4.852 83.0554 4.852C82.7114 4.852 82.4194 4.952 82.1794 5.152C81.9474 5.352 81.8034 5.636 81.7474 6.004H84.3154ZM89.5499 4.42C89.7899 4.052 90.0899 3.764 90.4499 3.556C90.8099 3.34 91.2099 3.232 91.6499 3.232V5.404H91.0859C90.5739 5.404 90.1899 5.516 89.9339 5.74C89.6779 5.956 89.5499 6.34 89.5499 6.892V10H87.4979V3.304H89.5499V4.42Z" fill="white"/>
</svg>
