<svg width="1573" height="225" viewBox="0 0 1573 225" fill="none" xmlns="http://www.w3.org/2000/svg">
<path d="M89.0359 92.3123C97.4728 94.1103 104.25 98.3288 109.368 104.968C114.485 111.468 117.044 118.937 117.044 127.374C117.044 139.545 112.756 149.227 104.181 156.419C95.7439 163.473 83.9184 167 68.7042 167H0.862883V21.359H66.4221C81.2213 21.359 92.7703 24.7476 101.069 31.5248C109.506 38.302 113.724 47.4997 113.724 59.1177C113.724 67.693 111.442 74.816 106.878 80.4867C102.452 86.1575 96.5046 90.0993 89.0359 92.3123ZM36.3395 80.2793H59.5757C65.3848 80.2793 69.8107 79.0345 72.8535 76.5449C76.0347 73.917 77.6252 70.1134 77.6252 65.1343C77.6252 60.1551 76.0347 56.3515 72.8535 53.7236C69.8107 51.0957 65.3848 49.7818 59.5757 49.7818H36.3395V80.2793ZM62.4802 138.37C68.4276 138.37 72.9918 137.056 76.173 134.428C79.4924 131.662 81.1522 127.72 81.1522 122.602C81.1522 117.485 79.4233 113.474 75.9655 110.569C72.6461 107.665 68.0127 106.212 62.0653 106.212H36.3395V138.37H62.4802ZM246.747 107.25C246.747 110.569 246.54 114.027 246.125 117.623H165.836C166.389 124.815 168.671 130.348 172.682 134.22C176.831 137.955 181.88 139.822 187.827 139.822C196.679 139.822 202.834 136.088 206.291 128.619H244.05C242.114 136.226 238.587 143.072 233.469 149.158C228.49 155.244 222.197 160.015 214.59 163.473C206.983 166.931 198.477 168.66 189.072 168.66C177.73 168.66 167.634 166.239 158.782 161.398C149.93 156.558 143.014 149.642 138.035 140.652C133.056 131.662 130.566 121.15 130.566 109.117C130.566 97.084 132.987 86.5724 137.828 77.5822C142.807 68.592 149.722 61.6765 158.574 56.8356C167.426 51.9947 177.592 49.5743 189.072 49.5743C200.275 49.5743 210.233 51.9256 218.947 56.6282C227.66 61.3307 234.438 68.0388 239.278 76.7523C244.258 85.4659 246.747 95.6317 246.747 107.25ZM210.441 97.9139C210.441 91.8282 208.366 86.9873 204.217 83.3912C200.067 79.7952 194.881 77.9971 188.657 77.9971C182.709 77.9971 177.661 79.726 173.512 83.1838C169.501 86.6415 167.011 91.5516 166.043 97.9139H210.441ZM283.305 39.201C277.081 39.201 271.963 37.403 267.952 33.8069C264.08 30.0725 262.143 25.5083 262.143 20.1142C262.143 14.5817 264.08 10.0175 267.952 6.42142C271.963 2.68703 277.081 0.819838 283.305 0.819838C289.391 0.819838 294.37 2.68703 298.242 6.42142C302.253 10.0175 304.259 14.5817 304.259 20.1142C304.259 25.5083 302.253 30.0725 298.242 33.8069C294.37 37.403 289.391 39.201 283.305 39.201ZM300.94 51.234V167H265.463V51.234H300.94ZM397.187 49.9893C410.742 49.9893 421.53 54.4152 429.552 63.2671C437.712 71.9806 441.793 84.0136 441.793 99.3661V167H406.523V104.138C406.523 96.3924 404.518 90.3759 400.507 86.0883C396.496 81.8007 391.102 79.6569 384.325 79.6569C377.547 79.6569 372.153 81.8007 368.142 86.0883C364.131 90.3759 362.126 96.3924 362.126 104.138V167H326.649V51.234H362.126V66.5865C365.722 61.469 370.563 57.458 376.648 54.5535C382.734 51.5107 389.58 49.9893 397.187 49.9893ZM510.428 49.5743C518.588 49.5743 525.711 51.234 531.797 54.5535C538.021 57.873 542.793 62.2297 546.112 67.6238V51.234H581.589V166.793C581.589 177.442 579.445 187.055 575.158 195.63C571.008 204.344 564.577 211.259 555.863 216.377C547.288 221.494 536.569 224.053 523.706 224.053C506.555 224.053 492.655 219.973 482.005 211.813C471.355 203.791 465.27 192.864 463.748 179.033H498.81C499.917 183.459 502.544 186.917 506.694 189.406C510.843 192.034 515.961 193.348 522.046 193.348C529.377 193.348 535.186 191.204 539.473 186.917C543.899 182.767 546.112 176.059 546.112 166.793V150.403C542.655 155.797 537.883 160.223 531.797 163.681C525.711 167 518.588 168.66 510.428 168.66C500.885 168.66 492.24 166.239 484.495 161.398C476.75 156.419 470.595 149.435 466.03 140.444C461.605 131.316 459.392 120.804 459.392 108.91C459.392 97.0148 461.605 86.5724 466.03 77.5822C470.595 68.592 476.75 61.6765 484.495 56.8356C492.24 51.9947 500.885 49.5743 510.428 49.5743ZM546.112 109.117C546.112 100.265 543.623 93.2805 538.644 88.163C533.803 83.0455 527.855 80.4867 520.801 80.4867C513.748 80.4867 507.731 83.0455 502.752 88.163C497.911 93.1421 495.491 100.058 495.491 108.91C495.491 117.761 497.911 124.815 502.752 130.071C507.731 135.189 513.748 137.747 520.801 137.747C527.855 137.747 533.803 135.189 538.644 130.071C543.623 124.954 546.112 117.969 546.112 109.117ZM686.696 49.7818V79.2419H734.206V106.627H686.696V138.577H740.43V167H651.22V21.359H740.43V49.7818H686.696ZM834 49.9893C847.555 49.9893 858.343 54.4152 866.365 63.2671C874.525 71.9806 878.605 84.0136 878.605 99.3661V167H843.336V104.138C843.336 96.3924 841.331 90.3759 837.32 86.0883C833.309 81.8007 827.915 79.6569 821.137 79.6569C814.36 79.6569 808.966 81.8007 804.955 86.0883C800.944 90.3759 798.939 96.3924 798.939 104.138V167H763.462V51.234H798.939V66.5865C802.535 61.469 807.375 57.458 813.461 54.5535C819.547 51.5107 826.393 49.9893 834 49.9893ZM947.241 49.5743C955.401 49.5743 962.524 51.234 968.61 54.5535C974.834 57.873 979.606 62.2297 982.925 67.6238V51.234H1018.4V166.793C1018.4 177.442 1016.26 187.055 1011.97 195.63C1007.82 204.344 1001.39 211.259 992.676 216.377C984.101 221.494 973.382 224.053 960.519 224.053C943.368 224.053 929.468 219.973 918.818 211.813C908.168 203.791 902.083 192.864 900.561 179.033H935.623C936.729 183.459 939.357 186.917 943.507 189.406C947.656 192.034 952.773 193.348 958.859 193.348C966.19 193.348 971.999 191.204 976.286 186.917C980.712 182.767 982.925 176.059 982.925 166.793V150.403C979.467 155.797 974.696 160.223 968.61 163.681C962.524 167 955.401 168.66 947.241 168.66C937.698 168.66 929.053 166.239 921.308 161.398C913.562 156.419 907.408 149.435 902.843 140.444C898.417 131.316 896.204 120.804 896.204 108.91C896.204 97.0148 898.417 86.5724 902.843 77.5822C907.408 68.592 913.562 61.6765 921.308 56.8356C929.053 51.9947 937.698 49.5743 947.241 49.5743ZM982.925 109.117C982.925 100.265 980.436 93.2805 975.456 88.163C970.615 83.0455 964.668 80.4867 957.614 80.4867C950.56 80.4867 944.544 83.0455 939.565 88.163C934.724 93.1421 932.303 100.058 932.303 108.91C932.303 117.761 934.724 124.815 939.565 130.071C944.544 135.189 950.56 137.747 957.614 137.747C964.668 137.747 970.615 135.189 975.456 130.071C980.436 124.954 982.925 117.969 982.925 109.117ZM1061.91 39.201C1055.69 39.201 1050.57 37.403 1046.56 33.8069C1042.68 30.0725 1040.75 25.5083 1040.75 20.1142C1040.75 14.5817 1042.68 10.0175 1046.56 6.42142C1050.57 2.68703 1055.69 0.819838 1061.91 0.819838C1068 0.819838 1072.97 2.68703 1076.85 6.42142C1080.86 10.0175 1082.86 14.5817 1082.86 20.1142C1082.86 25.5083 1080.86 30.0725 1076.85 33.8069C1072.97 37.403 1068 39.201 1061.91 39.201ZM1079.54 51.234V167H1044.07V51.234H1079.54ZM1175.79 49.9893C1189.35 49.9893 1200.13 54.4152 1208.16 63.2671C1216.32 71.9806 1220.4 84.0136 1220.4 99.3661V167H1185.13V104.138C1185.13 96.3924 1183.12 90.3759 1179.11 86.0883C1175.1 81.8007 1169.71 79.6569 1162.93 79.6569C1156.15 79.6569 1150.76 81.8007 1146.75 86.0883C1142.74 90.3759 1140.73 96.3924 1140.73 104.138V167H1105.25V51.234H1140.73V66.5865C1144.33 61.469 1149.17 57.458 1155.25 54.5535C1161.34 51.5107 1168.19 49.9893 1175.79 49.9893ZM1354.18 107.25C1354.18 110.569 1353.97 114.027 1353.55 117.623H1273.27C1273.82 124.815 1276.1 130.348 1280.11 134.22C1284.26 137.955 1289.31 139.822 1295.26 139.822C1304.11 139.822 1310.26 136.088 1313.72 128.619H1351.48C1349.54 136.226 1346.02 143.072 1340.9 149.158C1335.92 155.244 1329.63 160.015 1322.02 163.473C1314.41 166.931 1305.91 168.66 1296.5 168.66C1285.16 168.66 1275.06 166.239 1266.21 161.398C1257.36 156.558 1250.44 149.642 1245.46 140.652C1240.49 131.662 1238 121.15 1238 109.117C1238 97.084 1240.42 86.5724 1245.26 77.5822C1250.24 68.592 1257.15 61.6765 1266 56.8356C1274.86 51.9947 1285.02 49.5743 1296.5 49.5743C1307.7 49.5743 1317.66 51.9256 1326.38 56.6282C1335.09 61.3307 1341.87 68.0388 1346.71 76.7523C1351.69 85.4659 1354.18 95.6317 1354.18 107.25ZM1317.87 97.9139C1317.87 91.8282 1315.8 86.9873 1311.65 83.3912C1307.5 79.7952 1302.31 77.9971 1296.09 77.9971C1290.14 77.9971 1285.09 79.726 1280.94 83.1838C1276.93 86.6415 1274.44 91.5516 1273.47 97.9139H1317.87ZM1482.02 107.25C1482.02 110.569 1481.81 114.027 1481.4 117.623H1401.11C1401.66 124.815 1403.94 130.348 1407.95 134.22C1412.1 137.955 1417.15 139.822 1423.1 139.822C1431.95 139.822 1438.11 136.088 1441.56 128.619H1479.32C1477.39 136.226 1473.86 143.072 1468.74 149.158C1463.76 155.244 1457.47 160.015 1449.86 163.473C1442.26 166.931 1433.75 168.66 1424.34 168.66C1413 168.66 1402.91 166.239 1394.05 161.398C1385.2 156.558 1378.29 149.642 1373.31 140.652C1368.33 131.662 1365.84 121.15 1365.84 109.117C1365.84 97.084 1368.26 86.5724 1373.1 77.5822C1378.08 68.592 1385 61.6765 1393.85 56.8356C1402.7 51.9947 1412.86 49.5743 1424.34 49.5743C1435.55 49.5743 1445.51 51.9256 1454.22 56.6282C1462.93 61.3307 1469.71 68.0388 1474.55 76.7523C1479.53 85.4659 1482.02 95.6317 1482.02 107.25ZM1445.71 97.9139C1445.71 91.8282 1443.64 86.9873 1439.49 83.3912C1435.34 79.7952 1430.15 77.9971 1423.93 77.9971C1417.98 77.9971 1412.93 79.726 1408.78 83.1838C1404.77 86.6415 1402.28 91.5516 1401.32 97.9139H1445.71ZM1536.21 70.5284C1540.36 64.1661 1545.55 59.1869 1551.77 55.5908C1558 51.8564 1564.91 49.9893 1572.52 49.9893V87.5406H1562.77C1553.92 87.5406 1547.28 89.4769 1542.85 93.3496C1538.43 97.084 1536.21 103.723 1536.21 113.266V167H1500.74V51.234H1536.21V70.5284Z" fill="#EF0909"/>
</svg>
